SplineFontDB: 3.0
FontName: Amatic
FullName: Amatic
FamilyName: Amatic
Weight: Normal
Copyright: 
Version: 001.001
ItalicAngle: 0
UnderlinePosition: -102
UnderlineWidth: 102
Ascent: 1536
Descent: 512
sfntRevision: 0x00010000
LayerCount: 2
Layer: 0 0 "Back"  1
Layer: 1 0 "Fore"  0
NeedsXUIDChange: 1
XUID: [1021 14 500265001 2948645]
FSType: 0
OS2Version: 0
OS2_WeightWidthSlopeOnly: 0
OS2_UseTypoMetrics: 0
CreationTime: 1313488105
ModificationTime: 1313502421
PfmFamily: 81
TTFWeight: 400
TTFWidth: 5
LineGap: 0
VLineGap: 0
Panose: 0 0 0 0 0 0 0 0 0 0
OS2TypoAscent: 1536
OS2TypoAOffset: 0
OS2TypoDescent: -512
OS2TypoDOffset: 0
OS2TypoLinegap: 0
OS2WinAscent: 2048
OS2WinAOffset: 0
OS2WinDescent: 53
OS2WinDOffset: 0
HheadAscent: 1536
HheadAOffset: 0
HheadDescent: -565
HheadDOffset: 0
OS2SubXSize: 1331
OS2SubYSize: 1229
OS2SubXOff: 0
OS2SubYOff: 154
OS2SupXSize: 1331
OS2SupYSize: 1229
OS2SupXOff: 0
OS2SupYOff: 717
OS2StrikeYSize: 102
OS2StrikeYPos: 614
OS2Vendor: 'newt'
OS2CodePages: 00000001.00000000
OS2UnicodeRanges: 00000001.00000000.00000000.00000000
MarkAttachClasses: 1
DEI: 91125
LangName: 1033 "" "" "Regular" "" "Untitled" "Version 1.000;PS 001.001;hotconv 1.0.56" "" "Please refer to the Copyright section for the font trademark attribution notices." "" "" "" "" "" "" "http://scripts.sil.org/OFL" 
Encoding: ISO8859-1
Compacted: 1
UnicodeInterp: none
NameList: Adobe Glyph List
DisplaySize: -48
AntiAlias: 1
FitToEm: 1
WidthSeparation: 180
WinInfo: 0 22 12
BeginPrivate: 4
StdHW 4 [59]
StdVW 4 [55]
StemSnapH 13 [51 55 59 63]
StemSnapV 13 [55 59 68 78]
EndPrivate
TeXData: 1 0 0 119296 59648 39765 694272 -1048576 39765 783286 444596 497025 792723 393216 433062 380633 303038 157286 324010 404750 52429 2506097 1059062 262144
BeginChars: 275 174

StartChar: exclam
Encoding: 33 33 2
Width: 286
Flags: HW
LayerCount: 2
Fore
SplineSet
44 39 m 2
 44 78 85 123 126 123 c 0
 185 123 207 71 207 27 c 0
 207 -16 179 -44 137 -47 c 0
 121 -48 l 1
 117 -35 l 1
 101 -31 72 -23 46 30 c 0
 44 34 l 1
 44 39 l 2
101 330 m 2
 101 821 l 0
 101 938 105 1055 105 1171 c 0
 105 1280 91 1385 91 1493 c 0
 91 1538 139 1569 175 1569 c 0
 202 1569 222 1549 222 1522 c 0
 222 1193 179 869 179 543 c 0
 179 519 181 487 181 453 c 0
 181 411 177 365 167 334 c 1
 186 301 l 1
 103 301 l 1
 103 319 l 1
 102 321 101 328 101 330 c 2
EndSplineSet
Validated: 1
EndChar

StartChar: numbersign
Encoding: 35 35 3
Width: 748
Flags: HW
LayerCount: 2
Fore
SplineSet
402 -37 m 0
 402 53 429 137 429 219 c 0
 429 345 463 466 467 584 c 1
 416 588 372 588 322 588 c 0
 302 588 284 587 269 584 c 1
 244 389 233 -78 162 -78 c 0
 153 -78 107 -75 107 -37 c 0
 107 59 120 154 130 246 c 1
 143 356 157 469 178 578 c 1
 159 576 138 571 115 571 c 0
 87 571 33 579 33 635 c 0
 33 682 97 676 123 676 c 0
 166 676 l 0
 175 676 187 676 191 676 c 1
 200 727 218 888 223 949 c 1
 207 948 193 946 175 946 c 0
 157 946 78 942 74 1002 c 0
 74 1011 l 1
 102 1042 l 1
 111 1042 l 0
 135 1042 202 1041 230 1045 c 1
 241 1135 255 1218 265 1305 c 0
 271 1356 275 1406 275 1456 c 0
 275 1468 273 1481 273 1497 c 0
 273 1516 278 1563 324 1563 c 0
 337 1563 l 1
 359 1518 l 1
 359 1513 l 0
 359 1440 351 1370 343 1299 c 0
 334 1217 323 1136 322 1055 c 1
 345 1051 365 1051 390 1051 c 0
 430 1051 471 1050 507 1060 c 1
 539 1217 568 1370 580 1527 c 0
 581 1534 l 1
 585 1539 l 0
 596 1553 611 1563 631 1563 c 0
 654 1563 669 1544 675 1529 c 0
 676 1525 l 1
 676 1521 l 0
 674 1359 606 1214 603 1065 c 1
 671 1065 l 1
 712 1020 l 1
 708 1008 l 0
 706 1003 697 963 662 963 c 0
 638 963 613 965 592 966 c 1
 572 878 567 783 566 695 c 1
 576 696 583 696 594 696 c 0
 622 696 672 689 672 637 c 0
 672 602 632 593 627 591 c 0
 623 590 l 1
 558 590 l 1
 540 379 502 176 502 -31 c 0
 502 -38 l 1
 469 -78 l 1
 459 -78 l 0
 450 -78 402 -78 402 -37 c 0
279 683 m 1
 286 682 289 682 295 682 c 0
 353 682 413 682 466 688 c 1
 482 779 499 867 500 954 c 1
 473 962 401 963 363 963 c 0
 343 963 324 960 312 956 c 1
 298 908 281 737 279 683 c 1
EndSplineSet
Validated: 33
EndChar

StartChar: dollar
Encoding: 36 36 4
Width: 494
Flags: HW
LayerCount: 2
Fore
SplineSet
247 1035 m 1
 257 1035 l 2
 264 1035 280 1019 280 1013 c 2
 280 965 l 1
 252 992 l 1
 258 942 263 904 268 893 c 0
 329 741 464 608 464 419 c 2
 464 413 l 1
 461 408 l 2
 393 308 430 264 321 189 c 1
 321 183 322 181 322 177 c 0
 324 148 329 118 329 86 c 0
 329 74 335 -18 274 -18 c 0
 232 -18 235 38 235 42 c 2
 235 52 l 1
 241 56 l 1
 241 163 l 1
 230 163 220 163 210 163 c 0
 191 163 173 162 156 160 c 2
 148 159 l 1
 141 163 l 2
 130 170 120 179 109 189 c 0
 85 211 61 241 61 279 c 0
 61 298 75 319 100 319 c 2
 110 319 l 1
 114 317 l 2
 156 292 158 251 162 246 c 0
 165 243 172 237 200 237 c 0
 212 237 225 239 237 241 c 1
 236 379 223 794 186 869 c 0
 119 1009 46 1115 46 1287 c 0
 46 1337 62 1494 144 1520 c 1
 143 1528 142 1532 141 1539 c 0
 139 1554 137 1571 137 1589 c 0
 137 1601 135 1661 186 1661 c 2
 195 1661 l 1
 224 1629 l 1
 222 1620 l 2
 220 1608 221 1593 221 1579 c 0
 221 1539 230 1515 251 1507 c 0
 257 1505 264 1503 274 1503 c 0
 279 1503 285 1504 290 1506 c 2
 303 1510 l 1
 312 1500 l 2
 321 1489 382 1432 382 1401 c 0
 382 1379 367 1355 337 1355 c 0
 273 1355 260 1435 231 1446 c 1
 231 1394 227 1344 227 1295 c 0
 227 1260 236 1137 247 1035 c 1
146 1383 m 1
 138 1342 135 1298 135 1286 c 0
 135 1225 151 1156 172 1093 c 1
 165 1192 153 1288 146 1383 c 1
290 690 m 1
 295 548 312 411 315 269 c 1
 350 299 372 345 372 385 c 0
 372 429 331 598 290 690 c 1
EndSplineSet
Validated: 33
EndChar

StartChar: percent
Encoding: 37 37 5
Width: 1077
Flags: HW
LayerCount: 2
Fore
SplineSet
440.030273438 1050 m 0
 440.030273438 967 434.030273438 702 241.030273438 702 c 0
 42.0302734375 702 49.0302734375 1067 49.0302734375 1168 c 0
 49.0302734375 1176 l 0
 49.0302734375 1230 77.0302734375 1552 215.030273438 1552 c 0
 230.030273438 1552 327.030273438 1555 374.030273438 1468 c 1
 426.030273438 1382 440.030273438 1241 440.030273438 1148 c 0
 440.030273438 1142 l 1
 436.030273438 1137 l 0
 425.030273438 1122 440.030273438 1071 440.030273438 1050 c 0
141.030273438 1166 m 0
 141.030273438 1132 145.030273438 1096 145.030273438 1057 c 0
 145.030273438 1006 166.030273438 797 237.030273438 797 c 0
 337.030273438 797 352.030273438 985 352.030273438 1063 c 0
 352.030273438 1147 336.030273438 1220 335.030273438 1309 c 1
 331.030273438 1327 l 1
 331.030273438 1329 l 0
 331.030273438 1399 282.030273438 1456 221.030273438 1456 c 0
 175.030273438 1456 159.030273438 1272 149.030273438 1216 c 1
 148.030273438 1194 141.030273438 1178 141.030273438 1166 c 0
645.030273438 358 m 0
 645.030273438 464 638.030273438 836 837.030273438 836 c 0
 1030.03027344 836 1036.03027344 564 1036.03027344 479 c 0
 1036.03027344 447 1033.03027344 419 1032.03027344 391 c 1
 1036.03027344 385 l 1
 1036.03027344 379 l 0
 1036.03027344 258 1011.03027344 6 810.030273438 6 c 0
 671.030273438 6 645.030273438 301 645.030273438 350 c 0
 645.030273438 358 l 0
831.030273438 737 m 0
 762.030273438 737 741.030273438 530 741.030273438 475 c 0
 741.030273438 437 737.030273438 400 737.030273438 367 c 0
 737.030273438 356 744.030273438 333 745.030273438 316 c 1
 756.030273438 261 771.030273438 115 815.030273438 115 c 0
 949.030273438 115 942.030273438 335 942.030273438 469 c 0
 942.030273438 547 927.030273438 737 831.030273438 737 c 0
714.030273438 1532 m 0
 737.030273438 1532 765.030273438 1518 765.030273438 1486 c 0
 765.030273438 1462 728.030273438 1319 724.030273438 1298 c 1
 650.030273438 966 571.030273438 640 493.030273438 307 c 0
 452.030273438 133 l 1
 444.030273438 102 439.030273438 0 374.030273438 -6 c 0
 367.030273438 -7 l 1
 361.030273438 -3 l 0
 343.030273438 8 331.030273438 29 331.030273438 50 c 0
 331.030273438 151 377.030273438 286 403.030273438 401 c 0
 483.030273438 746 568.030273438 1092 660.030273438 1435 c 0
 660.030273438 1436 l 1
 660.030273438 1436 669.030273438 1532 714.030273438 1532 c 0
EndSplineSet
Validated: 524321
EndChar

StartChar: ampersand
Encoding: 38 38 6
Width: 903
Flags: HW
LayerCount: 2
Fore
SplineSet
333 199 m 0
 165 199 53 388 53 532 c 0
 53 793 124 908 235 1123 c 1
 234 1218 221 1308 221 1405 c 0
 221 1575 l 0
 221 1609 230 1724 307 1724 c 0
 363 1724 483 1684 483 1599 c 0
 483 1556 477 1516 477 1477 c 0
 477 1469 477 1462 478 1457 c 0
 480 1451 l 1
 477 1445 l 0
 447 1360 420 1266 376 1184 c 1
 354 1143 323 1115 323 1085 c 0
 323 986 453 497 542 412 c 1
 596 532 608 647 608 780 c 0
 608 786 607 791 607 792 c 1
 599 792 576 792 562 814 c 0
 555 824 l 1
 559 831 l 1
 555 844 l 1
 572 872 l 1
 583 872 l 0
 619 872 774 887 797 896 c 0
 802 898 l 1
 807 897 l 0
 827 894 860 881 860 846 c 0
 860 793 762 793 737 793 c 0
 722 793 707 794 696 794 c 1
 695 613 679 489 612 352 c 1
 649 314 696 287 745 287 c 0
 766 287 793 293 821 293 c 0
 828 293 l 1
 864 264 l 1
 864 254 l 0
 864 192 762 201 751 201 c 0
 677 201 616 240 564 278 c 1
 488 226 433 199 333 199 c 0
139 569 m 0
 139 428 198 279 348 279 c 0
 383 279 485 310 502 337 c 1
 492 352 483 358 468 373 c 1
 365 478 297 711 270 846 c 1
 261 892 259 938 252 977 c 1
 175 859 139 708 139 569 c 0
745 649 m 2
 752 649 767 634 767 627 c 0
 767 577 l 1
 695 649 l 1
 745 649 l 2
314 1308 m 2
 311 1299 311 1292 311 1280 c 0
 311 1271 311 1258 312 1251 c 1
 354 1335 397 1482 397 1530 c 0
 397 1585 386 1631 343 1632 c 1
 331 1625 310 1586 309 1579 c 1
 311 1329 l 1
 316 1315 l 1
 314 1308 l 2
EndSplineSet
Validated: 33
EndChar

StartChar: quoteright
Encoding: 257 8217 7
Width: 359
Flags: HW
LayerCount: 2
Fore
SplineSet
54 1222 m 1
 63 1262 l 1
 67 1266 l 0
 108 1305 161 1347 167 1390 c 1
 136 1412 108 1448 108 1491 c 0
 108 1547 165 1575 206 1575 c 0
 258 1575 280 1536 293 1502 c 0
 297 1492 l 1
 292 1486 l 1
 294 1476 294 1470 294 1464 c 0
 294 1394 207 1199 111 1196 c 0
 105 1196 l 1
 54 1222 l 1
EndSplineSet
Validated: 1
EndChar

StartChar: parenleft
Encoding: 40 40 8
Width: 418
Flags: HW
LayerCount: 2
Fore
SplineSet
56 879 m 0
 56 977 131 1642 274 1647 c 0
 282 1647 l 1
 316 1619 l 1
 316 1609 l 0
 314 1531 263 1472 243 1416 c 1
 183 1249 152 1057 152 879 c 0
 152 565 185 157 306 -131 c 1
 329 -187 373 -241 391 -310 c 0
 393 -319 l 1
 389 -326 l 0
 382 -337 367 -360 340 -360 c 0
 281 -360 265 -287 256 -266 c 1
 123 31 56 514 56 879 c 0
EndSplineSet
Validated: 1
EndChar

StartChar: parenright
Encoding: 41 41 9
Width: 434
Flags: HW
LayerCount: 2
Fore
SplineSet
384 817 m 0
 384 647 359 480 320 315 c 1
 302 239 192 -299 78 -299 c 0
 59 -299 27 -287 27 -254 c 0
 27 -219 89 -132 113 -71 c 1
 210 187 287 540 287 817 c 0
 287 1010 260 1236 196 1417 c 0
 176 1474 123 1531 123 1610 c 0
 123 1620 l 1
 158 1647 l 1
 165 1647 l 0
 319 1642 384 922 384 817 c 0
EndSplineSet
Validated: 1
EndChar

StartChar: asterisk
Encoding: 42 42 10
Width: 861
Flags: HW
LayerCount: 2
Fore
SplineSet
189 745 m 2
 189 805 317 1008 346 1102 c 1
 117 1102 l 0
 110 1102 99 1100 84 1100 c 0
 47 1100 41 1137 41 1153 c 0
 41 1177 59 1198 84 1198 c 0
 169 1198 253 1196 333 1196 c 1
 291 1279 195 1470 195 1503 c 0
 195 1539 232 1546 248 1546 c 0
 303 1546 363 1317 400 1252 c 1
 429 1332 485 1565 553 1565 c 0
 579 1565 607 1542 607 1513 c 0
 607 1484 585 1460 577 1448 c 1
 537 1369 518 1277 484 1193 c 1
 516 1189 548 1188 580 1188 c 0
 635 1188 696 1198 756 1198 c 0
 789 1198 816 1169 816 1139 c 0
 816 1091 767 1090 748 1090 c 0
 666 1090 593 1100 515 1100 c 0
 502 1100 487 1100 476 1099 c 1
 503 1020 629 812 629 754 c 0
 629 725 605 705 580 705 c 0
 510 705 508 812 504 824 c 1
 476 892 445 957 413 1020 c 1
 410 1013 409 1010 407 1004 c 1
 327 815 l 1
 313 782 303 742 282 708 c 0
 277 700 l 1
 231 693 l 1
 189 737 l 1
 189 745 l 2
EndSplineSet
Validated: 1
EndChar

StartChar: plus
Encoding: 43 43 11
Width: 684
Flags: HW
LayerCount: 2
Fore
SplineSet
274 385 m 2
 274 449 l 0
 274 485 278 520 278 555 c 0
 278 603 289 602 229 602 c 0
 203 602 174 592 139 592 c 0
 107 592 59 602 59 655 c 0
 59 675 67 705 102 705 c 0
 141 705 175 698 210 698 c 0
 218 698 258 699 274 703 c 1
 273 767 264 832 264 899 c 0
 264 935 281 965 325 965 c 0
 356 965 382 943 382 909 c 0
 382 905 l 1
 374 885 l 1
 375 831 382 782 382 727 c 0
 382 699 386 698 419 698 c 0
 458 698 499 705 542 705 c 0
 562 705 626 703 626 647 c 0
 626 612 599 594 571 594 c 0
 528 594 487 600 446 600 c 0
 384 600 382 610 382 553 c 0
 382 487 401 452 401 389 c 0
 401 349 361 336 337 336 c 0
 320 336 274 347 274 385 c 2
EndSplineSet
Validated: 33
EndChar

StartChar: comma
Encoding: 44 44 12
Width: 376
Flags: HW
LayerCount: 2
Fore
SplineSet
61 -173 m 1
 70 -133 l 1
 74 -129 l 0
 115 -90 168 -47 174 -4 c 1
 143 18 115 53 115 96 c 0
 115 152 172 180 213 180 c 0
 265 180 287 142 300 108 c 0
 304 98 l 1
 300 91 l 1
 302 81 302 76 302 70 c 0
 302 0 214 -196 118 -199 c 0
 113 -199 l 1
 61 -173 l 1
EndSplineSet
Validated: 1
EndChar

StartChar: hyphen
Encoding: 45 45 13
Width: 587
Flags: HW
LayerCount: 2
Fore
SplineSet
513 739 m 0
 513 673 219 659 141 659 c 0
 117 659 77 675 77 715 c 0
 77 781 379 795 448 795 c 0
 472 795 513 778 513 739 c 0
EndSplineSet
Validated: 1
EndChar

StartChar: period
Encoding: 46 46 14
Width: 295
Flags: HW
LayerCount: 2
Fore
SplineSet
77 41 m 0
 77 79 111 117 151 117 c 0
 190 117 221 76 221 43 c 0
 221 -7 182 -29 143 -29 c 0
 104 -29 77 9 77 41 c 0
EndSplineSet
Validated: 1
EndChar

StartChar: slash
Encoding: 47 47 15
Width: 512
Flags: HW
LayerCount: 2
Fore
SplineSet
475 1505 m 0
 475 1480 437 1334 433 1313 c 1
 359 972 280 636 202 294 c 0
 161 116 l 1
 153 84 148 -21 83 -27 c 0
 76 -27 l 1
 70 -23 l 0
 52 -11 40 9 40 31 c 0
 40 135 87 274 113 392 c 0
 193 746 277 1100 369 1453 c 0
 369 1454 l 1
 369 1454 378 1552 423 1552 c 0
 446 1552 475 1538 475 1505 c 0
EndSplineSet
Validated: 1
EndChar

StartChar: zero
Encoding: 48 48 16
Width: 567
Flags: HW
LayerCount: 2
Fore
SplineSet
521.245117188 519 m 0
 521.245117188 403 519.245117188 6 304.245117188 6 c 0
 282.245117188 6 241.245117188 27 227.245117188 35 c 1
 106.245117188 108 78.2451171875 668 68.2451171875 793 c 0
 67.2451171875 802 l 1
 76.2451171875 810 l 1
 74.2451171875 938 l 1
 59.2451171875 969 62.2451171875 1016 62.2451171875 1050 c 0
 62.2451171875 1156 64.2451171875 1263 64.2451171875 1369 c 0
 64.2451171875 1374 l 1
 67.2451171875 1379 l 0
 100.245117188 1437 69.2451171875 1563 230.245117188 1563 c 0
 260.245117188 1563 289.245117188 1544 308.245117188 1534 c 1
 440.245117188 1455 439.245117188 1314 455.245117188 1196 c 0
 486.245117188 973 521.245117188 746 521.245117188 519 c 0
158.245117188 987 m 0
 158.245117188 930 179.245117188 873 179.245117188 807 c 0
 179.245117188 801 179.245117188 795 179.245117188 787 c 0
 179.245117188 614 194.245117188 94 322.245117188 94 c 0
 411.245117188 94 431.245117188 463 431.245117188 565 c 0
 431.245117188 694 413.245117188 994 369.245117188 1104 c 0
 367.245117188 1108 l 1
 367.245117188 1196 l 1
 308.245117188 1354 392.245117188 1491 205.245117188 1517 c 1
 148.245117188 1468 150.245117188 1451 150.245117188 1370 c 0
 150.245117188 1244 158.245117188 1115 158.245117188 987 c 0
EndSplineSet
Validated: 524321
EndChar

StartChar: one
Encoding: 49 49 17
Width: 559
Flags: HW
LayerCount: 2
Fore
SplineSet
154.623046875 43 m 4
 154.623046875 48 l 5
 172.623046875 84 l 5
 185.623046875 84 l 4
 205.623046875 84 223.623046875 82 240.623046875 82 c 4
 268.623046875 82 271.623046875 85 271.623046875 116 c 4
 271.623046875 512.268892794 235.676269531 910.634446397 210 1309 c 0
 210 1310 l 0
 210 1333 212 1354 212 1377 c 0
 212 1441 203 1483 139 1483 c 0
 126 1483 112 1479 92 1479 c 0
 81 1479 36 1480 36 1522 c 0
 36 1585 228 1571 237 1571 c 0
 260 1571 277 1557 286 1539 c 1
 299 1539 l 1
 294 1515 l 0
 290 1497 288 1476 288 1457 c 0
 288 1438 289 1420 290 1401 c 0
 297 1297 319 1189 319 1080 c 0
 319 840.803892216 355.623046875 600.525449102 355.623046875 357 c 4
 355.623046875 348 353.623046875 338 351.623046875 331 c 5
 360.623046875 286 363.623046875 146 363.623046875 106 c 4
 363.623046875 100 362.623046875 94 362.623046875 90 c 5
 390.623046875 92 412.623046875 96 441.623046875 96 c 4
 450.623046875 96 525.623046875 102 525.623046875 48 c 4
 525.623046875 3 475.623046875 0 459.623046875 0 c 4
 376.623046875 0 292.623046875 -8 207.623046875 -8 c 4
 179.623046875 -8 154.623046875 12 154.623046875 43 c 4
EndSplineSet
Validated: 524321
EndChar

StartChar: two
Encoding: 50 50 18
Width: 529
Flags: HW
LayerCount: 2
Fore
SplineSet
378 1238 m 4
 378 1329 369 1501 276 1506 c 5
 270 1503 265 1499 261 1495 c 4
 229 1465 236 1332 172 1332 c 4
 126 1332 125 1376 125 1392 c 4
 125 1431 137 1489 166 1532 c 4
 185 1561 214 1586 254 1586 c 4
 283 1586 308 1580 332 1570 c 4
 419 1534 466 1443 469 1353 c 4
 469 1344 l 5
 465 1340 l 5
 466 1293 471 1249 471 1202 c 4
 471 989 403 618 313 422 c 5
 285 361 180 158 156 80 c 5
 231 93 314 97 392 101 c 4
 401 101 l 5
 450 51 l 5
 416 3 l 5
 405 3 l 4
 307 3 209 -16 106 -16 c 4
 76 -16 34 2 34 44 c 4
 34 51 l 5
 39 57 l 6
 94 124 106 210 147 296 c 5
 294 608 378 894 378 1238 c 4
EndSplineSet
Validated: 1
EndChar

StartChar: three
Encoding: 51 51 19
Width: 545
Flags: HW
LayerCount: 2
Fore
SplineSet
150 74 m 0
 150 85 l 1
 182 105 l 1
 188 104 l 0
 229 102 259 73 281 59 c 1
 393 63 410 186 410 292 c 0
 410 490.745117188 404 702.666992188 283 852 c 1
 279 851 276 851 271 851 c 0
 257 851 239 854 223 862 c 0
 212 867 l 1
 212 879 l 1
 201 890 l 1
 201 899 l 0
 205 950 332 1014 332 1152 c 0
 332 1244 313 1483 222 1483 c 0
 139 1483 170 1366 87 1366 c 0
 62 1366 36 1384 32 1413 c 0
 31 1419 l 1
 33 1424 l 0
 71 1501 124 1573 228 1573 c 0
 270 1573 310 1547 332 1522 c 1
 339 1520 l 1
 343 1514 l 0
 417 1408 429 1245 429 1126 c 0
 429 1081 410 1039 389 1004 c 0
 387 1001 l 1
 384 998 l 0
 380 995 353 953 335 926 c 1
 470 848.995117188 465 650.833984375 490 542 c 4
 506 456.126953125 507 451 507 360 c 0
 507 239 505 -19 298 -19 c 0
 256 -19 150 0 150 74 c 0
EndSplineSet
Validated: 524289
EndChar

StartChar: four
Encoding: 52 52 20
Width: 480
Flags: HW
LayerCount: 2
Fore
SplineSet
258.438476562 59 m 1
 254.438476562 66 l 1
 256.438476562 73 l 0
 262.438476562 95 264.438476562 116 264.438476562 139 c 0
 264.438476562 203 249.438476562 269 249.438476562 339 c 0
 249.438476562 370 253.438476562 400 253.438476562 428 c 0
 253.438476562 444 251.438476562 484 245.438476562 495 c 1
 208.438476562 493 175.438476562 483 133.438476562 483 c 0
 97.4384765625 483 86.4384765625 493 65.4384765625 509 c 0
 57.4384765625 515 l 1
 57.4384765625 531 l 0
 57.4384765625 554 62.4384765625 577 66.4384765625 593 c 1
 59.3857421875 608.764648438 57 624.193359375 57 639.436523438 c 0
 57 671.3203125 67.4384765625 702.387695312 67.4384765625 734 c 0
 67.4384765625 867 88.4384765625 999 88.4384765625 1128 c 0
 88.4384765625 1447 l 0
 88.4384765625 1457 79.4384765625 1476 79.4384765625 1498 c 0
 79.4384765625 1522 96.4384765625 1544 124.438476562 1544 c 0
 144.438476562 1544 182.438476562 1533 182.438476562 1496 c 0
 182.438476562 1440 174.438476562 1388 174.438476562 1336 c 0
 174.438476562 1315 175.438476562 1293 179.438476562 1272 c 0
 181.438476562 1264 l 1
 176.438476562 1257 l 1
 178.438476562 1240 180.438476562 1225 180.438476562 1206 c 0
 180.438476562 1036 155.438476562 869 155.438476562 703 c 2
 155.438476562 592 l 2
 155.438476562 585 156.438476562 577 157.438476562 574 c 1
 176.438476562 574 218.438476562 580 237.438476562 585 c 1
 236.438476562 724 229.438476562 862 223.438476562 1002 c 1
 221.438476562 1053 206.438476562 1106 206.438476562 1163 c 0
 206.438476562 1202 253.438476562 1206 266.438476562 1206 c 0
 275.438476562 1206 l 1
 305.438476562 1172 l 1
 305.438476562 1165 l 0
 305.438476562 1073 317.438476562 979 317.438476562 883 c 0
 317.438476562 850 322.438476562 651 332.438476562 593 c 1
 350.438476562 595 369.438476562 600 393.438476562 600 c 0
 403.438476562 600 452.438476562 600 452.438476562 558 c 0
 452.438476562 515.583007812 424.462890625 510.872070312 396.108398438 510.872070312 c 0
 388.01171875 510.872070312 379.883789062 511.256835938 372.368164062 511.256835938 c 0
 352.838867188 511.256835938 337.438476562 508.663085938 337.438476562 490 c 0
 337.438476562 447 347.438476562 183 354.438476562 160 c 1
 357.438476562 154 l 1
 355.438476562 148 l 0
 354.438476562 144 354.438476562 132 354.438476562 118 c 0
 354.438476562 101 357.438476562 84 359.438476562 81 c 0
 363.438476562 74 l 1
 357.438476562 48 l 1
 362.438476562 37 l 1
 362.438476562 -12.9072265625 340.639648438 -36.6162109375 317.002929688 -36.6162109375 c 0
 289.009765625 -36.6162109375 258.438476562 -3.365234375 258.438476562 59 c 1
EndSplineSet
Validated: 524289
EndChar

StartChar: five
Encoding: 53 53 21
Width: 525
Flags: HW
LayerCount: 2
Fore
SplineSet
296 -36 m 4
 286 -36 169 -46 169 18 c 4
 169 62 219 61 229 61 c 4
 259 61 275 44 282 44 c 4
 290 44 299 47 308 55 c 4
 360 101 391 273 391 326 c 4
 391 440 366 917 262 917 c 4
 221 917 l 5
 213 910 l 5
 206 910 l 4
 182 910 184 894 155 894 c 4
 73 894 88 982 84 1005 c 4
 83 1008 l 5
 84 1011 l 4
 90 1044 94 1077 94 1109 c 4
 94 1246 49 1385 45 1530 c 4
 44 1538 l 5
 77 1570 l 5
 243 1572 l 5
 255 1572 325 1578 325 1523 c 4
 325 1513 l 5
 289 1484 l 5
 245 1484 l 5
 238 1479 l 5
 153 1490 l 5
 149 1489 l 5
 151 1433 159 1377 163 1320 c 5
 171 1213 179 1103 189 998 c 5
 213 995 245 992 279 986 c 4
 308 981 337 976 356 962 c 5
 459 887 483 536 483 431 c 4
 483 299 484 99 361 -4 c 4
 348 -15 332 -25 316 -33 c 4
 312 -36 l 5
 296 -36 l 4
EndSplineSet
Validated: 33
EndChar

StartChar: six
Encoding: 54 54 22
Width: 477
Flags: HW
LayerCount: 2
Fore
SplineSet
435.1640625 200 m 4
 435.1640625 102 416.1640625 -14 273.1640625 -14 c 4
 78.1640625 -14 107.1640625 298 93.1640625 390 c 5
 72.1640625 533 62.1640625 675 62.1640625 820 c 4
 62.1640625 940 48.1640625 1583 279.1640625 1583 c 4
 292.1640625 1583 324.1640625 1574 324.1640625 1545 c 4
 324.1640625 1498 252.1640625 1482 248.1640625 1479 c 4
 247.1640625 1479 l 5
 247.1640625 1478 l 4
 195.1640625 1437 162.1640625 1082 157.1640625 944 c 5
 165.1640625 946 173.1640625 948 181.1640625 948 c 4
 443.1640625 948 435.1640625 348 435.1640625 200 c 4
203.1640625 882 m 5
 170.1640625 858 156.1640625 832 156.1640625 792 c 4
 154.1640625 594 172.1640625 400 207.1640625 204 c 5
 219.1640625 130 214.1640625 67 289.1640625 67 c 4
 337.1640625 67 345.1640625 149 345.1640625 209 c 4
 345.1640625 338 324.1640625 866 203.1640625 882 c 5
EndSplineSet
Validated: 524321
EndChar

StartChar: seven
Encoding: 55 55 23
Width: 411
Flags: HW
LayerCount: 2
Fore
SplineSet
48.8212890625 23 m 1
 48.8212890625 32 l 2
 48.8212890625 88 74.8212890625 136 85.8212890625 180 c 1
 166.821289062 518 189.821289062 871 234.821289062 1219 c 1
 246.821289062 1314 267.821289062 1410 269.821289062 1500 c 1
 253.821289062 1503 224.821289062 1504 218.821289062 1504 c 0
 179.821289062 1504 140.821289062 1497 97.8212890625 1497 c 0
 90.8212890625 1497 l 1
 68.2646484375 1507.52441406 45 1533.86230469 45 1553.4609375 c 0
 45 1566.7890625 55.759765625 1577 84.8212890625 1577 c 0
 155.821289062 1577 228.821289062 1583 301.821289062 1583 c 0
 334.821289062 1583 358.821289062 1558 366.821289062 1534 c 0
 368.821289062 1527 l 1
 366.821289062 1520 l 0
 352.821289062 1484 357.821289062 1441 353.821289062 1394 c 1
 341.821289062 1254 198.821289062 215 161.821289062 118 c 1
 162.821289062 109 162.821289062 107 162.821289062 104 c 0
 162.821289062 79 153.821289062 -7 94.8212890625 -10 c 0
 85.8212890625 -10 l 1
 48.8212890625 23 l 1
EndSplineSet
Validated: 524289
EndChar

StartChar: eight
Encoding: 56 56 24
Width: 481
Flags: HW
LayerCount: 2
Fore
SplineSet
249 -78 m 0
 115 -78 90 124 90 200 c 0
 90 385 108 579 156 761 c 1
 167 801 186 835 186 866 c 0
 186 878 148 993 140 1018 c 1
 103 1128 45 1307 45 1426 c 0
 45 1501 73 1610 184 1610 c 0
 226 1610 l 1
 230 1607 l 0
 252 1596 292 1588 311 1548 c 1
 340 1483 352 1386 352 1318 c 0
 352 1209 331 1103 310 998 c 1
 304 971 280 879 280 866 c 0
 280 860 299 821 306 800 c 0
 372 605 442 348 442 120 c 0
 442 99 436 83 436 72 c 0
 436 67 439 65 440 62 c 1
 436 53 l 0
 396 -22 351 -78 249 -78 c 0
206 81 m 1
 203 71 l 1
 207 37 227 2 249 2 c 0
 326 2 352 62 352 139 c 0
 352 289 316 465 275 613 c 1
 261 661 251 719 238 759 c 1
 193 626 178 295 178 188 c 0
 178 156 189 122 203 88 c 0
 206 81 l 1
167 1524 m 1
 142 1498 137 1461 137 1417 c 0
 137 1369 181 1102 217 1001 c 1
 247 1107 264 1208 264 1315 c 0
 264 1374 245 1524 210 1524 c 0
 208 1524 199 1522 188 1522 c 0
 181 1522 174 1522 167 1524 c 1
EndSplineSet
Validated: 1
EndChar

StartChar: nine
Encoding: 57 57 25
Width: 473
Flags: HW
LayerCount: 2
Fore
SplineSet
274 0 m 5
 278 11 l 6
 288 39 293 78 295 117 c 4
 296 139 295 162 295 182 c 4
 295 337 303 492 305 646 c 4
 305 677 306 708 306 739 c 4
 306 802 303 869 302 932 c 5
 146 967 41 1090 41 1243 c 4
 41 1343 62 1612 236 1612 c 4
 276 1612 358 1594 386 1553 c 5
 410 1516 404 1262 404 1223 c 4
 404 1145 402 1065 402 987 c 4
 402 952 388 928 388 907 c 4
 388 819 387 731 386 643 c 4
 384 506 381 370 381 234 c 4
 381 189 371 147 368 108 c 4
 367 100 367 93 367 86 c 4
 367 72 369 58 369 40 c 4
 369 21 367 -36 314 -36 c 4
 304 -36 l 5
 274 0 l 5
151 1171 m 5
 152 1164 l 6
 163 1049 204 1064 300 1009 c 5
 305 1010 l 5
 313 1153 314 1290 314 1430 c 4
 314 1495 300 1533 238 1533 c 4
 160 1533 136 1335 136 1250 c 4
 136 1230 142 1181 146 1176 c 5
 151 1171 l 5
EndSplineSet
Validated: 33
EndChar

StartChar: colon
Encoding: 58 58 26
Width: 301
Flags: HW
LayerCount: 2
Fore
SplineSet
70 250 m 0
 70 288 104 326 144 326 c 0
 183 326 213 285 213 252 c 0
 213 202 175 180 136 180 c 0
 97 180 70 218 70 250 c 0
91 1024 m 0
 91 1062 124 1100 164 1100 c 0
 203 1100 234 1059 234 1026 c 0
 234 976 195 954 156 954 c 0
 117 954 91 992 91 1024 c 0
EndSplineSet
Validated: 1
EndChar

StartChar: semicolon
Encoding: 59 59 27
Width: 345
Flags: HW
LayerCount: 2
Fore
SplineSet
136.126953125 1024 m 0
 136.126953125 1062 169.126953125 1100 209.126953125 1100 c 0
 248.126953125 1100 279.126953125 1059 279.126953125 1026 c 0
 279.126953125 976 240.126953125 954 201.126953125 954 c 0
 162.126953125 954 136.126953125 992 136.126953125 1024 c 0
60.126953125 48 m 1
 101.126953125 87 154.126953125 129 160.126953125 172 c 1
 129.126953125 194 101.126953125 229 101.126953125 272 c 0
 101.126953125 328 158.126953125 356 199.126953125 356 c 0
 255.126953125 356 287.126953125 305 287.126953125 258 c 0
 287.126953125 187.00390625 202.544921875 -5.16015625 90.126953125 -8 c 0
 85.126953125 -8 l 1
 71.1220703125 -0.0078125 52 8.61328125 52 26.0341796875 c 0
 52 32.15234375 54.3583984375 39.3564453125 60.126953125 48 c 1
EndSplineSet
Validated: 524289
EndChar

StartChar: question
Encoding: 63 63 28
Width: 1125
Flags: HW
LayerCount: 2
Fore
SplineSet
66 715 m 0
 66 805 68 895 68 985 c 0
 68 1317 107 1935 590 1935 c 0
 713 1935 832 1843 898 1752 c 1
 957 1725 949 1664 967 1647 c 0
 973 1641 l 1
 973 1632 l 0
 973 1589 994 1489 1002 1441 c 1
 1026 1274 1069 1089 1069 920 c 0
 1069 854 l 0
 1069 639 1074 141 908 -27 c 1
 821 -116 733 -186 594 -186 c 0
 94 -186 66 362 66 715 c 0
442 -66 m 1
 462 -73 486 -78 498 -78 c 0
 502 -78 l 1
 521 -86 l 1
 936 -81 961 374 961 707 c 0
 961 987 942 1347 839 1644 c 0
 835 1655 l 1
 849 1670 l 1
 838 1689 823 1705 808 1711 c 0
 804 1713 l 1
 801 1716 l 0
 743 1776 682 1835 605 1835 c 0
 242 1835 177 1337 177 1042 c 0
 177 902 191 759 191 616 c 0
 191 432 207 169 318 25 c 0
 360 -30 399 -26 442 -66 c 1
455 147 m 0
 424 147 385 167 385 209 c 0
 385 297 385 384 377 471 c 0
 371 536 351 604 351 676 c 0
 351 1075 l 0
 351 1199 326 1318 326 1454 c 0
 326 1606 405 1632 539 1632 c 0
 753 1632 772 1416 772 1270 c 0
 772 1018 632 997 631 969 c 1
 634 929 786 400 814 311 c 1
 820 311 l 1
 820 292 l 1
 827 272 850 219 850 199 c 0
 850 165 806 152 799 149 c 0
 795 147 l 1
 791 147 l 0
 690 147 644 493 630 539 c 1
 596 647 550 870 528 919 c 1
 513 915 494 900 468 895 c 1
 466 859 463 829 463 797 c 0
 463 604 508 411 508 211 c 0
 508 185 500 147 455 147 c 0
443 1415 m 0
 443 1346 448 1060 466 997 c 1
 517 1014 627 1113 638 1143 c 1
 651 1182 656 1228 656 1272 c 0
 656 1373 650 1528 545 1528 c 0
 444 1528 443 1515 443 1415 c 0
EndSplineSet
Validated: 33
EndChar

StartChar: at
Encoding: 64 64 29
Width: 1030
Flags: HW
LayerCount: 2
Fore
SplineSet
153 137 m 6
 151 162 139 182 128 214 c 4
 93 314 59 766 59 884 c 4
 59 1036 63 1191 94 1343 c 5
 142 1578 205 1713 479 1713 c 4
 864 1713 910 1310 952 1037 c 5
 966 947 983 856 983 763 c 4
 983 667 984 405 810 405 c 4
 759 405 733 439 716 450 c 5
 672 370 582 306 487 306 c 4
 231 306 221 645 221 814 c 4
 221 830 221 847 221 865 c 4
 221 1049 228 1345 491 1345 c 4
 549 1345 610 1323 651 1279 c 4
 704 1224 752 684 766 560 c 5
 785 551 l 5
 788 545 l 4
 793 536 808 511 815 505 c 5
 862 512 872 710 872 775 c 4
 872 985 834 1205 759 1403 c 5
 702 1551 630 1613 468 1613 c 4
 232 1613 208 1446 196 1239 c 5
 192 1179 190 1104 168 1043 c 5
 170 1015 172 993 172 966 c 4
 172 948 172 924 165 901 c 5
 168 889 167 881 167 874 c 4
 167 759 182 647 194 530 c 5
 217 329 192 221 311 52 c 5
 343 6 384 -34 434 -34 c 4
 501 -34 558 -26 610 -9 c 4
 682 15 743 56 806 122 c 5
 815 131 834 159 860 166 c 4
 872 170 l 5
 907 134 l 5
 904 123 l 4
 875 21 750 -48 634 -86 c 4
 564 -109 495 -122 442 -122 c 4
 290 -122 206 20 155 130 c 4
 153 133 l 5
 153 137 l 6
491 1249 m 4
 355 1249 344 1077 344 954 c 4
 344 691 l 4
 344 557 355 407 503 407 c 4
 562 407 641 540 641 605 c 4
 641 759 l 4
 641 868 615 980 592 1089 c 5
 572 1183 576 1249 491 1249 c 4
EndSplineSet
Validated: 33
EndChar

StartChar: A
Encoding: 65 65 30
Width: 656
Flags: HW
HStem: 369 70<238 427>
VStem: 468 125<2 49 49 334> 468 102<158 334>
LayerCount: 2
Fore
SplineSet
471 53 m 2xc0
 474 55 475 57 475 59 c 0
 475 67 468 80 468 100 c 0
 468 316 l 1xc0
 438 342 264 368 224 369 c 1
 195 329 181 82 141 20 c 0
 135 20 l 1
 124 20 l 0
 95 20 63 21 43 45 c 0
 37 58 l 1
 44 68 l 0
 78 116 116 392 137 480 c 0
 198 742 229 1010 289 1274 c 1
 295 1299 338 1536 405 1536 c 0
 428 1536 451 1532 468 1516 c 0
 469 1515 l 1
 469 1516 l 0
 499 1472 528 1011 534 942 c 1
 536 913 546 811 554 794 c 0
 557 789 l 1
 556 783 l 0
 554 752 552 722 552 694 c 0
 552 662 555 633 568 610 c 0
 571 606 l 1
 571 600 l 0xa0
 571 424 593 246 593 66 c 0
 593 41 593 0 528 0 c 0
 499 0 468 13 468 35 c 0
 468 49 l 1
 471 53 l 2xc0
235 461 m 1
 293 445 364 438 421 438 c 0
 433 438 444 438 452 440 c 0
 459 443 l 1
 466 439 l 0
 466 439 408 1189 397 1259 c 1
 393 1255 l 0
 391 1254 388 1250 386 1245 c 0
 386 1243 l 1
 336 1055 328 854 282 659 c 1
 265 591 236 523 235 461 c 1
EndSplineSet
Validated: 1
EndChar

StartChar: B
Encoding: 66 66 31
Width: 576
Flags: HW
LayerCount: 2
Fore
SplineSet
182.286132812 -12 m 0
 173.286132812 -12 81.2861328125 -20 81.2861328125 36 c 0
 81.2861328125 204 91.2861328125 373 91.2861328125 540 c 0
 91.2861328125 817 77.2861328125 1094 77.2861328125 1372 c 0
 77.2861328125 1395 68.2861328125 1536 151.286132812 1536 c 0
 359.286132812 1536 458.286132812 1385 458.286132812 1203 c 0
 458.286132812 1078 402.286132812 968 331.286132812 871 c 1
 448.286132812 703 524.286132812 664 524.286132812 481 c 0
 524.286132812 450 517.286132812 420 517.286132812 395 c 0
 517.286132812 393 519.286132812 388 522.286132812 380 c 0
 524.286132812 375 l 1
 523.286132812 371 l 0
 498.286132812 185 461.286132812 91 272.286132812 10 c 0
 268.286132812 8 l 1
 265.286132812 8 l 0
 245.286132812 7 219.286132812 -12 182.286132812 -12 c 0
190.286132812 772 m 1
 198.286132812 542 200.286132812 315 200.286132812 88 c 1
 276.286132812 96 401.286132812 197 418.286132812 263 c 1
 425.286132812 296 425.286132812 334 425.286132812 371 c 0
 425.286132812 520 405.286132812 729 266.286132812 790 c 1
 242.286132812 788 215.286132812 778 190.286132812 772 c 1
182.286132812 1358 m 0
 182.286132812 1202 189.286132812 1042 190.286132812 886 c 1
 283.286132812 901 325.286132812 1078 364.286132812 1173 c 1
 364.286132812 1247 l 0
 364.286132812 1327 292.286132812 1425 214.286132812 1425 c 0
 189.286132812 1425 182.286132812 1396 182.286132812 1358 c 0
EndSplineSet
Validated: 524321
EndChar

StartChar: C
Encoding: 67 67 32
Width: 649
Flags: HW
LayerCount: 2
Fore
SplineSet
385 1450 m 1
 385 1434 l 1
 381 1434 l 1
 381 1451 l 1
 376 1453 372 1454 371 1454 c 0
 173 1453 166 1310 166 1142 c 0
 166 1096 172 1050 172 1001 c 0
 172 948 154 900 154 857 c 0
 154 750 198 212 235 156 c 0
 266 109 332 88 392 88 c 0
 441 88 489 105 519 140 c 2
 525 147 l 1
 535 147 l 2
 550 147 562 149 577 153 c 2
 588 156 l 1
 613 131 l 1
 613 123 l 2
 613 -4 445 -33 365 -33 c 0
 272 -33 171 47 135 123 c 0
 91 215 58 753 58 874 c 0
 58 926 60 1180 70 1228 c 1
 66 1251 64 1269 64 1291 c 0
 64 1473 221 1565 387 1565 c 0
 427 1565 527 1538 527 1468 c 0
 527 1430 487 1425 473 1425 c 0
 434 1425 429 1450 420 1450 c 0
 415 1450 412 1449 406 1447 c 2
 400 1445 l 1
 393 1447 l 2
 391 1448 388 1449 385 1450 c 1
EndSplineSet
Validated: 1
EndChar

StartChar: D
Encoding: 68 68 33
Width: 653
Flags: HW
LayerCount: 2
Fore
SplineSet
70 62 m 1
 76 68 l 2
 92 86 102 114 104 137 c 1
 112 311 l 1
 110 341 114 365 114 391 c 0
 114 544 96 698 84 851 c 1
 65 909 79 1293 67 1372 c 1
 62 1399 38 1435 38 1478 c 0
 38 1555 189 1546 213 1546 c 0
 223 1546 l 0
 351 1546 492 1384 533 1286 c 1
 587 1152 571 908 590 868 c 0
 592 864 l 1
 588 811 l 1
 596 798 l 1
 589 782 l 1
 597 770 l 1
 590 759 l 0
 584 750 581 723 581 708 c 0
 581 615 560 562 542 492 c 0
 503 340 457 200 322 92 c 1
 284 62 206 -4 167 -4 c 0
 142 -4 78 5 71 53 c 0
 70 62 l 1
206 146 m 0
 208 142 l 1
 208 109 l 1
 447 256 491 667 491 854 c 0
 491 1116 446 1432 182 1432 c 0
 170 1432 160 1430 159 1429 c 1
 159 1428 159 1428 159 1428 c 1
 159 1314 178 1205 178 1090 c 0
 178 829 208 569 208 309 c 0
 208 255 207 202 205 150 c 1
 206 148 205 148 206 146 c 0
EndSplineSet
Validated: 33
EndChar

StartChar: E
Encoding: 69 69 34
Width: 457
Flags: HW
HStem: -12 112<206 414> 754 114<189 342> 1426 122<181 272>
VStem: 63 117<1248 1430> 79 109<566 756 849 1083 1093 1430> 89 106<101 554 566 736 853 1426>
LayerCount: 2
Fore
SplineSet
197 -12 m 0xe4
 152 -12 71 -14 71 52 c 0
 71 87 89 108 89 125 c 0xe4
 89 127 l 1
 83 158 81 187 81 217 c 0
 81 287 91 355 91 421 c 0
 91 562 79 705 79 848 c 0xe8
 79 981 89 1114 89 1245 c 0xe4
 89 1310 65 1380 63 1454 c 0
 63 1460 l 1
 66 1466 l 0
 74 1477 93 1511 106 1524 c 0
 112 1530 l 1
 120 1530 l 0
 169 1530 214 1548 263 1548 c 0
 272 1548 l 1
 278 1542 l 0
 293 1527 354 1548 354 1484 c 0
 354 1423 281 1426 259 1426 c 0
 238 1426 219 1430 204 1430 c 0
 194 1430 182 1428 180 1427 c 1xf0
 180 1315 196 1203 196 1087 c 0xe4
 196 1006 187 925 186 849 c 1
 217 854 247 868 286 868 c 0
 312 868 343 845 343 814 c 0
 343 794 333 754 292 754 c 0
 280 754 262 756 245 756 c 0
 203 756 188 747 188 738 c 0xe8
 188 685 202 629 202 570 c 0
 202 566 l 1
 196 554 l 1
 196 159 l 1
 208 138 206 113 206 100 c 1
 241 102 273 105 309 105 c 0
 317 105 425 115 425 54 c 0
 425 48 l 1
 423 44 l 0
 390 -15 299 -12 223 -12 c 0
 215 -12 206 -12 197 -12 c 0xe4
EndSplineSet
Validated: 33
EndChar

StartChar: F
Encoding: 70 70 35
Width: 391
Flags: HW
LayerCount: 2
Fore
SplineSet
227 50 m 0
 227 8 189 -4 161 -4 c 0
 94 -4 106 148 106 152 c 0
 106 175 108 194 108 215 c 0
 108 415 81 615 81 818 c 0
 81 913 74 1395 47 1432 c 1
 42 1438 l 1
 42 1457 l 0
 42 1557 226 1548 266 1548 c 0
 309 1548 321 1504 321 1481 c 0
 321 1436 267 1440 262 1440 c 0
 248 1440 229 1442 212 1442 c 0
 174 1442 157 1434 157 1416 c 0
 157 1232 186 1047 188 862 c 1
 224 867 260 884 305 884 c 0
 341 884 358 846 358 824 c 0
 358 754 194 763 188 759 c 1
 188 535 227 317 227 90 c 0
 227 84 l 1
 223 77 l 1
 226 68 227 59 227 50 c 0
EndSplineSet
Validated: 33
EndChar

StartChar: G
Encoding: 71 71 36
Width: 727
Flags: HW
LayerCount: 2
Fore
SplineSet
410 -55 m 0
 218 -57 101.8515625 132.795898438 75 348 c 1
 59 523 55 701 55 877 c 0
 55 1092 58 1591 401 1591 c 0
 419 1591 483 1590 483 1536 c 0
 483 1501 453 1491 432 1491 c 0
 404 1491 387 1501 374 1501 c 0
 162 1501 169 1003 165 827 c 0
 163 745 159 663 159 582 c 0
 159 392 177 45 407 45 c 0
 478 45 521 75 561 133 c 1
 560 184 547 347 526 371 c 1
 501 370 478 362 446 362 c 0
 423 362 378 371 378 418 c 0
 378 479 538 483 552 483 c 0
 619 483 636 420 636 377 c 0
 636 259 677 139 677 12 c 0
 677 -8 667 -41 630 -41 c 0
 601 -41 573 -28 563 3 c 1
 512.698242188 -17.232421875 473.810546875 -54.3349609375 410 -55 c 0
EndSplineSet
Validated: 524321
EndChar

StartChar: H
Encoding: 72 72 37
Width: 560
Flags: HW
LayerCount: 2
Fore
SplineSet
495 39 m 0
 495 20 480 -33 438 -33 c 0
 390 -33 389 18 389 33 c 0
 389 51 391 65 391 80 c 0
 391 306 383 535 371 760 c 1
 344 762 318 770 300 770 c 0
 255 770 209 768 176 753 c 1
 177 518 210 293 210 57 c 0
 210 44 208 6 169 6 c 0
 148 6 126 14 117 40 c 1
 93 108 102 500 94 601 c 1
 71 905 57 1208 57 1512 c 0
 57 1525 l 1
 113 1552 l 1
 158 1514 l 1
 157 1503 l 0
 151 1453 149 1405 149 1354 c 0
 149 1216 165 1079 165 938 c 0
 165 910 163 882 163 856 c 0
 163 839 165 819 167 805 c 1
 236 807 304 819 372 821 c 1
 371 1046 354 1272 354 1499 c 0
 354 1512 356 1522 358 1532 c 0
 361 1548 l 1
 378 1548 l 0
 459 1548 456 1435 456 1367 c 0
 456 755 487 312 487 72 c 1
 493 59 495 52 495 39 c 0
EndSplineSet
Validated: 33
EndChar

StartChar: I
Encoding: 73 73 38
Width: 432
Flags: HW
HStem: -6 43G<222 245> 10 96<41 173 272 324> 18 103<273 350> 1447 106<229 345>
VStem: 135 88<916 1431> 173 100<118 631>
LayerCount: 2
Fore
SplineSet
231 -6 m 0x94
 214 -6 187 -8 165 10 c 1
 130 10 62 7 40 56 c 0
 38 60 l 1
 38 64 l 0
 38 111 98 106 106 106 c 0
 126 106 141 104 151 104 c 0
 155 104 171 99 173 154 c 1x54
 173 235 161 318 159 401 c 1
 155 636 141 869 135 1105 c 1
 135 1150 137 1253 137 1339 c 0
 137 1377 136 1412 134 1432 c 1
 120 1428 103 1421 81 1421 c 0
 46 1421 38 1453 38 1469 c 0
 38 1543 262 1552 288 1552 c 0
 316 1552 345 1532 345 1499 c 0
 345 1483 337 1447 300 1447 c 0
 280 1447 263 1449 251 1449 c 0
 227 1449 223 1434 223 1343 c 0x58
 223 964 274 585 274 200 c 0
 274 173 272 140 272 117 c 1
 291 119 305 122 325 122 c 0
 370 122 399 98 399 52 c 0
 399 42 l 1
 350 8 l 1
 343 8 l 0
 314 8 294 18 278 18 c 0x34
 269 18 256 11 245 0 c 0
 239 -6 l 1
 231 -6 l 0x94
EndSplineSet
Validated: 33
EndChar

StartChar: J
Encoding: 74 74 39
Width: 419
Flags: HW
LayerCount: 2
Fore
SplineSet
57 -138 m 1
 60 -93 127 -67 137 -57 c 0
 149 -45 159 -32 168 -17 c 1
 134 16 l 1
 184 16 l 2
 215 87 221 175 221 236 c 0
 221 422 202 612 198 800 c 0
 194 971 188 1142 180 1314 c 0
 178 1360 175 1404 167 1449 c 1
 140 1445 111 1433 75 1433 c 0
 46 1433 26 1458 26 1483 c 0
 26 1564 294 1552 329 1552 c 0
 359 1552 383 1529 383 1500 c 0
 383 1441 286 1451 265 1451 c 1
 264 1442 264 1438 264 1432 c 0
 264 1329 288 1225 288 1114 c 0
 288 848 325 586 325 314 c 0
 325 261 315 218 315 150 c 0
 315 136 317 126 319 123 c 2
 323 114 l 1
 306 77 l 1
 297 -36 205 -143 133 -195 c 2
 127 -199 l 1
 120 -199 l 2
 86 -199 57 -178 57 -139 c 2
 57 -138 l 1
EndSplineSet
Validated: 33
EndChar

StartChar: K
Encoding: 75 75 40
Width: 650
Flags: HW
LayerCount: 2
Fore
SplineSet
381 517 m 1
 346 641 308 770 255 884 c 1
 229 831 190 776 188 751 c 1
 182 701 182 647 182 596 c 0
 182 445 192 293 192 143 c 0
 192 91 194 -6 128 -6 c 0
 71 -6 71 72 71 106 c 0
 71 293 98 476 98 660 c 0
 98 895 89 1137 89 1372 c 1
 88 1374 88 1374 87 1376 c 0
 85 1380 l 1
 85 1384 l 0
 85 1410 71 1440 71 1478 c 0
 71 1502 85 1540 126 1540 c 0
 188 1540 196 1504 196 1282 c 0
 196 1167 192 1030 190 939 c 1
 242 1059 286 1179 337 1300 c 1
 349 1331 442 1597 501 1597 c 0
 526 1597 556 1581 556 1546 c 0
 556 1545 l 1
 556 1544 l 0
 549 1489 517 1457 501 1422 c 1
 463 1342 328 1070 313 992 c 1
 329 964 l 1
 319 957 l 1
 444 644 505 328 615 19 c 0
 616 15 l 1
 616 10 l 0
 613 -21 590 -47 554 -47 c 0
 542 -47 528 -40 523 -39 c 1
 508 -39 l 1
 505 -22 l 0
 474 159 430 341 381 517 c 1
EndSplineSet
Validated: 33
EndChar

StartChar: L
Encoding: 76 76 41
Width: 430
Flags: HW
LayerCount: 2
Fore
SplineSet
155 -23 m 0
 124 -23 89 4 89 39 c 0
 89 64 102 92 102 129 c 0
 102 315 81 505 81 696 c 0
 81 973 61 1253 61 1531 c 0
 61 1563 91 1571 108 1571 c 0
 140 1571 167 1549 167 1515 c 0
 167 1334 167 1155 175 974 c 1
 177 908 188 842 188 772 c 0
 188 750 186 726 184 708 c 1
 185 706 185 708 186 706 c 0
 190 700 l 1
 190 693 l 0
 188 667 186 641 186 616 c 0
 186 466 204 318 208 165 c 0
 208 158 l 1
 205 153 l 0
 201 147 200 138 200 124 c 0
 200 93 198 96 227 96 c 0
 243 96 254 99 256 101 c 0
 262 109 l 1
 355 109 l 1
 361 104 l 0
 369 98 397 83 397 51 c 0
 397 29 383 -4 348 -4 c 0
 335 -4 323 1 317 3 c 1
 302 -1 287 0 276 0 c 0
 254 0 231 2 212 2 c 0
 205 2 193 -23 155 -23 c 0
EndSplineSet
Validated: 1
EndChar

StartChar: M
Encoding: 77 77 42
Width: 824
Flags: HW
LayerCount: 2
Fore
SplineSet
682 -66 m 1
 682 -52 l 1
 635 -32 l 1
 635 -12 l 0
 635 -4 637 6 639 12 c 1
 633 27 l 1
 633 31 l 0
 635 92 637 154 637 217 c 0
 637 441 623 665 623 891 c 0
 623 939 625 987 626 1034 c 1
 615 972 603 912 592 852 c 1
 571 739 544 608 511 498 c 1
 500 464 486 438 484 413 c 1
 492 400 l 1
 489 391 l 0
 483 372 483 223 404 223 c 0
 322 223 336 416 334 432 c 1
 325 500 231 966 178 1197 c 1
 176 1102 174 1015 174 924 c 0
 174 707 180 489 180 272 c 0
 180 209 191 146 191 78 c 0
 191 56 190 32 168 10 c 0
 162 4 l 1
 154 4 l 0
 80 4 76 86 76 128 c 0
 76 233 86 350 86 461 c 0
 86 594 78 730 78 866 c 0
 78 1024 84 1182 84 1339 c 0
 84 1397 84 1453 82 1510 c 0
 82 1522 l 1
 137 1553 l 1
 144 1552 l 0
 234 1543 327 942 379 701 c 1
 388 663 407 581 420 515 c 1
 437 595 455 693 461 723 c 1
 496 890 525 1056 556 1224 c 0
 574 1324 601 1425 606 1520 c 1
 602 1532 l 1
 603 1538 l 0
 610 1575 647 1587 672 1587 c 0
 699 1587 717 1558 717 1538 c 0
 717 1537 l 0
 713 1461 711 1386 711 1310 c 0
 711 1010 744 709 744 408 c 0
 744 381 744 348 740 321 c 1
 740 267 754 226 754 109 c 0
 754 47 754 -31 712 -51 c 0
 682 -66 l 1
240 989 m 1
 242 989 l 1
 242 1030 l 1
 240 1030 l 1
 240 989 l 1
EndSplineSet
Validated: 33
EndChar

StartChar: N
Encoding: 78 78 43
Width: 737
Flags: HW
HStem: 1511 41G<141 171>
VStem: 70 98<375 1304> 84 141<1332 1548> 87 109<29 484> 551 106<929 1347 1382 1505 1505 1547 1547 1594> 551 92<189 1347>
LayerCount: 2
Fore
SplineSet
215 1108 m 0x84
 206 1117 l 1
 213 1135 l 1
 202 1192 192 1252 179 1306 c 1
 170 1269 168 1220 168 1182 c 0
 168 621 l 0xc4
 168 426 197 236 197 37 c 0
 197 29 l 1
 171 0 l 1
 101 0 l 1
 87 35 l 1x90
 89 41 l 0
 92 51 92 99 92 116 c 0
 92 346 70 577 70 810 c 0
 70 1072 l 0xc0
 70 1199 84 1325 84 1449 c 0
 84 1461 82 1475 82 1491 c 0
 82 1542 124 1552 158 1552 c 0
 184 1552 226 1531 226 1493 c 0
 226 1409 258 1375 284 1288 c 0
 306 1216 303 1143 317 1079 c 1
 356 892 416 708 465 523 c 1
 479 468 512 362 516 299 c 1
 539 259 536 216 542 188 c 1
 543 203 543 215 543 227 c 0
 543 465 551 703 551 940 c 0
 551 1046 545 1150 545 1257 c 0
 545 1287 551 1314 551 1335 c 0
 551 1338 551 1345 551 1347 c 1
 541 1354 l 1
 551 1382 l 1
 551 1435 552 1493 543 1542 c 0
 542 1547 l 1
 544 1552 l 0
 554 1587 592 1595 615 1595 c 0
 671 1595 668 1525 668 1510 c 0
 668 1505 l 1
 666 1501 l 0
 658 1486 656 1465 656 1444 c 0
 656 1423 658 1399 658 1376 c 0xa8
 658 1358 657 1331 650 1312 c 1
 650 1103 643 893 643 685 c 0
 643 669 645 651 647 633 c 0
 648 627 l 1
 643 618 l 1
 643 371 l 0
 643 351 647 325 647 295 c 0
 647 251 646 174 627 127 c 1
 627 103 633 83 633 55 c 0
 633 16 614 -23 561 -23 c 0
 489 -23 490 94 485 108 c 1
 389 411 290 718 232 1032 c 1
 224 1068 229 1094 215 1108 c 0x84
EndSplineSet
Validated: 33
EndChar

StartChar: O
Encoding: 79 79 44
Width: 650
Flags: HW
VStem: 152 334<404 1212>
LayerCount: 2
Fore
SplineSet
273 1591 m 4
 48 1591 77 1266 70 1146 c 1
 62 1032 54 915 54 799 c 0
 54 634 75 -63 355 -63 c 0
 482 -63 555 122 555 215 c 0
 555 256 561 299 571 341 c 0
 573 349 l 1
 570 355 l 0
 569 357 569 357 568 359 c 1
 569 441 586 529 586 618 c 0
 586 828 566 1035 537 1242 c 0
 514.731445312 1406.22949219 472.224609375 1591 273 1591 c 4
283 1477 m 0
 476 1477 486 819 486 653 c 0
 486 530 469 55 359 55 c 0
 205 55 152 681 152 831 c 0
 152 911 l 0
 152 1010 160 1477 283 1477 c 0
EndSplineSet
Validated: 524297
EndChar

StartChar: P
Encoding: 80 80 45
Width: 495
Flags: HW
LayerCount: 2
Fore
SplineSet
199 70 m 0
 199 39 193 -12 134 -12 c 0
 79 -12 89 76 89 78 c 0
 89 199 97 316 97 435 c 0
 97 541 80 648 80 758 c 0
 80 923 76 1089 70 1252 c 1
 66 1337 68 1434 48 1512 c 0
 46 1521 l 1
 51 1528 l 0
 67 1551 92 1565 121 1565 c 0
 341 1565 439 1353 439 1175 c 0
 439 1055 382 851 277 770 c 1
 223 742 l 1
 210 733 204 722 183 712 c 1
 184 495 199 286 199 70 c 0
164 1464 m 1
 154 1464 l 1
 155 1243 178 1024 179 807 c 1
 191 815 198 827 213 842 c 0
 307 936 340 1036 340 1161 c 0
 340 1346 304 1364 164 1464 c 1
EndSplineSet
Validated: 33
EndChar

StartChar: Q
Encoding: 81 81 46
Width: 676
Flags: HW
LayerCount: 2
Fore
SplineSet
646 -223 m 0
 646 -287 566 -283 547 -283 c 0
 520 -283 491 -259 479 -255 c 0
 478 -255 l 1
 478 -254 l 0
 380 -213 381 -58 362 20 c 1
 277 20 l 1
 271 24 l 0
 74 160 56 367 56 575 c 0
 56 688 66 799 66 910 c 0
 66 937 64 981 64 1032 c 0
 64 1227 75 1577 287 1577 c 0
 394 1577 515 1482 533 1379 c 1
 578 1130 588 851 588 599 c 0
 588 489 585 316 548 209 c 1
 534 171 487 103 462 67 c 1
 466 48 475 35 481 12 c 0
 502 -66 483 -176 553 -176 c 0
 559 -176 646 -166 646 -223 c 0
273 1479 m 0
 162 1479 154 789 154 655 c 2
 154 569 l 0
 154 429 194 90 346 80 c 1
 350 83 l 1
 369 119 405 106 405 106 c 1
 484 178 460 310 469 423 c 1
 471 459 484 494 484 522 c 0
 484 797 l 1
 475 823 476 844 476 866 c 0
 476 987 461 1068 449 1190 c 0
 434 1339 445 1479 273 1479 c 0
EndSplineSet
Validated: 33
EndChar

StartChar: R
Encoding: 82 82 47
Width: 548
Flags: HW
LayerCount: 2
Fore
SplineSet
392 33 m 1
 392 39 l 2
 382 175 312 307 283 448 c 1
 252 586 234 725 199 860 c 1
 183 853 l 1
 183 98 l 0
 183 85 187 69 187 47 c 0
 187 17 171 -14 129 -14 c 0
 98 -14 74 10 74 40 c 0
 74 45 l 1
 80 55 l 1
 80 458 88 860 88 1261 c 0
 88 1483 l 0
 88 1491 84 1503 84 1519 c 0
 84 1561 139 1556 146 1556 c 0
 279 1556 335 1469 364 1366 c 0
 364 1365 l 0
 376 1308 394 1274 394 1219 c 0
 394 1148 376 1078 351 1013 c 1
 343 989 301 890 299 877 c 1
 300 740 451 213 509 73 c 0
 510 69 l 1
 510 65 l 0
 510 59 518 -20 463 -20 c 0
 424 -20 407 16 397 27 c 0
 392 33 l 1
187 1466 m 1
 186 1324 176 1184 176 1044 c 0
 176 1011 176 975 179 944 c 1
 206 967 247 1018 253 1028 c 1
 273 1067 285 1160 285 1206 c 0
 285 1286 256 1460 187 1466 c 1
EndSplineSet
Validated: 33
EndChar

StartChar: S
Encoding: 83 83 48
Width: 523
Flags: HW
LayerCount: 2
Fore
SplineSet
41 21 m 1
 41 27 l 2
 41 46 52 72 84 72 c 0
 135 72 169 41 197 41 c 0
 307 41 359 249 359 352 c 0
 359 711 66 911 66 1276 c 0
 66 1394 130 1573 291 1573 c 0
 323 1573 388 1548 404 1511 c 0
 408 1502 l 1
 385 1461 l 1
 373 1461 l 0
 349 1461 323 1462 298 1481 c 1
 219 1475 177 1370 177 1291 c 0
 177 1074 288 895 395 704 c 0
 398 699 l 1
 398 694 l 0
 398 687 396 685 396 685 c 1
 403 658 436 557 442 538 c 1
 459 475 474 409 474 340 c 0
 474 195 396 -45 197 -45 c 0
 149 -45 78 -45 44 17 c 0
 41 21 l 1
EndSplineSet
Validated: 1
EndChar

StartChar: T
Encoding: 84 84 49
Width: 492
Flags: HW
LayerCount: 2
Fore
SplineSet
294 -12 m 0
 238 -12 231 67 231 88 c 0
 233 200 247 307 247 415 c 0
 247 625 219 838 219 1053 c 0
 219 1096 221 1103 221 1241 c 0
 221 1319 213 1406 202 1426 c 1
 166 1425 132 1415 90 1415 c 0
 66 1415 26 1429 26 1468 c 0
 26 1532 330 1546 399 1546 c 0
 424 1546 462 1529 462 1491 c 0
 462 1451 428 1440 403 1440 c 0
 377 1440 346 1446 327 1446 c 0
 313 1446 306 1443 305 1442 c 1
 315 1356 319 1273 319 1187 c 0
 319 1107 317 1025 317 946 c 0
 317 842 315 716 345 612 c 0
 346 608 l 1
 345 603 l 0
 341 584 339 568 339 549 c 0
 339 396 350 235 350 85 c 0
 350 62 351 -12 294 -12 c 0
EndSplineSet
Validated: 33
EndChar

StartChar: U
Encoding: 85 85 50
Width: 699
Flags: HW
HStem: -39 66<370 498>
VStem: 57 113<983 1471> 479 106<1017 1512> 497 109<649 1003 1017 1331 1338 1460> 509 111<194 425 454 641 644 1003 1017 1091> 518 111<58 425 454 614>
LayerCount: 2
Fore
SplineSet
98 475 m 1xc4
 98 480 l 2
 98 796 57 1111 57 1430 c 0
 57 1438 42 1441 42 1472 c 0
 42 1497 61 1532 98 1532 c 0
 179 1532 169 1385 169 1362 c 0
 169 1136 188 901 188 676 c 1
 210 630 197 518 216 443 c 0
 217 439 l 1
 216 435 l 0
 214 423 212 411 212 401 c 0
 212 292 325 27 436 27 c 0
 520 27 511 90 519 174 c 1
 517 184 518 188 518 193 c 0xc4
 518 219 524 241 524 260 c 0
 524 494 l 0
 524 530 509 570 509 616 c 0xc8
 509 738 497 859 497 983 c 0
 497 1003 l 1
 488 1017 l 1
 489 1025 l 0
 495 1063 497 1101 497 1139 c 0xd0
 497 1254 479 1368 479 1487 c 0
 479 1529 523 1540 544 1540 c 0
 552 1540 l 1
 603 1494 l 1
 595 1472 l 1
 600 1460 l 1
 600 1456 l 0
 600 1411 585 1371 585 1336 c 0xe0
 585 1218 606 1099 606 977 c 0xd0
 606 867 615 755 616 644 c 1
 624 641 l 1
 622 625 l 0
 620 613 620 600 620 586 c 0xc8
 620 544 625 499 626 454 c 1
 641 440 l 1
 626 426 l 0
 614 415 628 327 628 308 c 0
 628 190 619 -39 423 -39 c 0
 130 -39 149 380 100 471 c 0
 98 475 l 1xc4
EndSplineSet
Validated: 33
EndChar

StartChar: V
Encoding: 86 86 51
Width: 620
Flags: HW
LayerCount: 2
Fore
SplineSet
485 1559 m 4
 476 1552 469 1544 463 1538 c 0
 457 1532 l 1
 457 1516 l 0
 457 1446 449 1373 441 1301 c 1
 410 1014 376 726 343 439 c 1
 340 413 337 385 334 358 c 1
 259 723 225 1097 156 1466 c 1
 154 1480 153 1569 91 1569 c 0
 73 1569 41 1564 30 1532 c 0
 28 1524 l 1
 32 1516 l 0
 52 1477 95 1228 105 1170 c 1
 144 929 179 681 218 439 c 1
 240 290 263 134 300 -15 c 1
 315 -30 l 0
 320 -31 335 -39 351 -39 c 0
 391 -39 404 6 409 19 c 0
 410 23 l 1
 410 26 l 0
 412 154 520 1206 547 1266 c 1
 549 1271 l 1
 549 1276 l 0
 549 1356 577 1437 578 1526 c 1
 598.03125 1559.77050781 552.8984375 1560.47558594 535 1575 c 1
 529 1575 l 0
 511.967773438 1575 497.774414062 1569 485 1559 c 4
EndSplineSet
Validated: 524329
EndChar

StartChar: W
Encoding: 87 87 52
Width: 901
Flags: HW
LayerCount: 2
Fore
SplineSet
348 27 m 0
 348 5 323 -27 292 -27 c 0
 204 -27 222 144 221 164 c 1
 217 256 195 346 180 439 c 0
 158 581 60 1435 35 1484 c 1
 29 1494 l 1
 35 1504 l 0
 47 1524 70 1540 96 1540 c 0
 203 1540 192 1131 196 1087 c 1
 215 884 249 682 278 479 c 1
 286 549 295 614 301 680 c 1
 305 730 319 775 323 819 c 1
 331 933 334 1049 346 1165 c 1
 350 1208 360 1248 360 1288 c 0
 360 1298 358 1310 358 1325 c 0
 358 1355 378 1374 398 1384 c 0
 402 1386 l 1
 407 1386 l 0
 428 1386 489 1384 489 1329 c 0
 489 1325 l 1
 479 1299 l 1
 480 1008 589 722 632 436 c 1
 649 617 680 787 690 962 c 0
 700 1138 737 1312 737 1483 c 0
 737 1495 735 1507 735 1522 c 0
 735 1557 752 1591 808 1591 c 0
 832 1591 868 1573 868 1538 c 0
 868 1519 856 1503 847 1493 c 1
 847 1491 847 1489 847 1488 c 0
 847 1467 840 1452 839 1442 c 1
 800 1129 797 814 743 499 c 1
 720 369 692 200 692 71 c 0
 692 41 l 0
 692 15 684 -27 634 -27 c 0
 546 -27 539 329 534 364 c 1
 507 548 461 730 428 915 c 1
 427 895 425 879 421 860 c 0
 395 735 384 602 374 473 c 0
 362 323 348 175 348 27 c 0
292 1161 m 1
 333 1161 l 1
 333 1157 l 1
 292 1157 l 1
 292 1161 l 1
EndSplineSet
Validated: 33
EndChar

StartChar: X
Encoding: 88 88 53
Width: 520
Flags: HW
LayerCount: 2
Fore
SplineSet
93 -12 m 0
 75 -12 41 2 41 32 c 0
 41 67 77 158 87 191 c 1
 121 317 148 446 175 574 c 0
 191 652 213 744 213 820 c 0
 213 969 163 1120 132 1271 c 1
 119 1335 82 1400 80 1476 c 0
 80 1482 l 1
 83 1487 l 0
 90 1498 107 1522 134 1522 c 0
 209 1522 194 1435 197 1420 c 1
 217 1309 251 1192 275 1078 c 1
 303 1172 319 1272 337 1368 c 1
 340 1387 342 1552 418 1552 c 0
 430 1552 476 1550 476 1510 c 0
 476 1474 455 1446 448 1425 c 1
 414 1309 390 1176 365 1050 c 1
 349 970 325 864 324 792 c 1
 433 249 l 1
 429 237 l 1
 431 187 463 143 463 80 c 0
 463 53 440 26 410 26 c 0
 393 26 353 30 353 72 c 0
 353 141 334 217 322 287 c 1
 305 375 287 466 267 552 c 1
 233 411 173 127 164 76 c 1
 159 47 157 -12 93 -12 c 0
EndSplineSet
Validated: 33
EndChar

StartChar: Y
Encoding: 89 89 54
Width: 453
Flags: HW
VStem: 134 1<1526 1530> 186 125<422 463 473 727 758 989> 215 115<-22 72 78 583>
LayerCount: 2
Fore
SplineSet
215 25 m 0xa0
 215 157 225 290 225 420 c 0
 225 472 211 527 211 586 c 0
 211 646 186 707 186 776 c 0
 186 807 162 897 154 934 c 1
 123 1082 98 1235 60 1368 c 1
 48 1408 28 1465 28 1513 c 0
 28 1537 67 1546 90 1546 c 0
 96 1546 l 1
 134 1524 l 1
 135 1530 l 0
 140 1458 200 1127 240 994 c 1
 246 1022 251 1049 256 1080 c 0
 282 1258 271 1540 364 1540 c 0
 381 1540 415 1538 415 1518 c 0
 415 1482 403 1453 399 1427 c 1
 379 1312 354 1191 337 1071 c 0
 325 990 317 908 317 829 c 0
 317 810 323 788 323 762 c 0
 323 758 l 1
 311 727 l 1
 311 715 l 0xc0
 311 635 325 553 325 469 c 0
 325 340 325 207 321 78 c 1
 327 72 l 1
 327 53 l 1
 328 48 329 44 329 35 c 0
 329 12 313 -25 264 -25 c 0
 218 -25 215 15 215 25 c 0xa0
EndSplineSet
Validated: 1
EndChar

StartChar: Z
Encoding: 90 90 55
Width: 429
Flags: HW
LayerCount: 2
Fore
SplineSet
37 29 m 1
 42 37 l 2
 136 199 126 417 165 595 c 1
 196 816 228 1036 259 1255 c 0
 266 1302 273 1352 279 1399 c 0
 281 1419 283 1438 284 1457 c 1
 245 1454 210 1448 168 1448 c 0
 150 1448 56 1443 56 1509 c 0
 56 1517 l 1
 83 1549 l 1
 96 1546 l 0
 109 1543 124 1542 140 1542 c 0
 201 1542 262 1563 332 1563 c 0
 368 1563 385 1534 385 1507 c 0
 385 1503 l 1
 384 1499 l 0
 373 1474 366 1436 361 1395 c 0
 354 1337 351 1273 344 1225 c 1
 295 887 258 545 201 207 c 1
 193 157 164 115 156 79 c 1
 192 81 227 88 267 88 c 0
 286 88 373 91 373 28 c 0
 373 20 l 1
 343 -10 l 1
 334 -10 l 0
 253 -10 174 -18 91 -18 c 0
 61 -18 48 3 41 20 c 0
 37 29 l 1
EndSplineSet
Validated: 33
EndChar

StartChar: bracketleft
Encoding: 91 91 56
Width: 467
Flags: HW
LayerCount: 2
Fore
SplineSet
352 -68 m 0
 352 -108 306 -109 296 -109 c 0
 275 -109 45 -110 45 -35 c 0
 45 138 88 304 88 471 c 0
 88 811 141 1145 141 1481 c 0
 141 1487 128 1493 121 1523 c 0
 118 1538 l 1
 177 1573 l 1
 183 1573 l 0
 199 1572 438 1589 438 1511 c 0
 438 1476 400 1468 385 1468 c 0
 342 1468 305 1481 270 1481 c 0
 241 1481 229 1476 229 1458 c 0
 229 1099 198 730 176 370 c 1
 174 329 160 92 149 48 c 1
 149 3 l 1
 200 0 352 8 352 -68 c 0
EndSplineSet
Validated: 33
EndChar

StartChar: backslash
Encoding: 92 92 57
Width: 511
Flags: HW
LayerCount: 2
Fore
SplineSet
431 -27 m 2
 365 -21 360 85 353 116 c 1
 312 294 l 1
 232 636 147 972 81 1313 c 1
 77 1334 39 1480 39 1505 c 0
 39 1538 68 1552 91 1552 c 0
 136 1552 145 1454 145 1454 c 0
 145 1453 l 0
 237 1100 321 747 401 392 c 1
 427 272 474 135 474 31 c 0
 474 9 462 -11 444 -23 c 0
 438 -27 l 1
 431 -27 l 2
EndSplineSet
Validated: 1
EndChar

StartChar: bracketright
Encoding: 93 93 58
Width: 472
Flags: HW
LayerCount: 2
Fore
SplineSet
122 -68 m 0
 122 9 278 0 325 3 c 1
 325 48 l 1
 297 137 262 1060 258 1204 c 1
 256 1287 245 1372 245 1458 c 0
 245 1481 247 1479 231 1479 c 0
 195 1479 158 1470 116 1470 c 0
 116 1470 36 1459 36 1511 c 0
 36 1589 275 1572 291 1573 c 0
 297 1573 l 1
 356 1538 l 1
 353 1523 l 0
 346 1493 333 1487 333 1481 c 0
 333 1160 389 836 389 510 c 0
 389 331 430 150 430 -35 c 0
 430 -110 199 -109 178 -109 c 0
 168 -109 122 -108 122 -68 c 0
EndSplineSet
Validated: 33
EndChar

StartChar: asciicircum
Encoding: 94 94 59
Width: 280
Flags: HW
LayerCount: 2
Fore
SplineSet
76 1575 m 0
 76 1600 87 1653 136 1653 c 0
 175 1653 207 1624 207 1583 c 0
 207 1549 187 1518 146 1518 c 0
 119 1518 76 1529 76 1575 c 0
EndSplineSet
Validated: 1
EndChar

StartChar: underscore
Encoding: 95 95 60
Width: 522
Flags: HW
LayerCount: 2
Fore
SplineSet
60.0078125 1090 m 0
 60.0078125 1171 57.0078125 1387 171.0078125 1432 c 0
 175.0078125 1434 l 1
 179.0078125 1434 l 0
 223.0078125 1434 319.0078125 1416 335.0078125 1370 c 1
 408.0078125 1267 442.0078125 876 447.0078125 750 c 1
 451.0078125 743 l 1
 451.0078125 737 l 0
 451.0078125 653 478.0078125 569 478.0078125 477 c 0
 478.0078125 294 l 1
 476.0078125 290 l 0
 441.0078125 217 490.0078125 18 297.0078125 18 c 0
 129.0078125 18 103.0078125 231 97.0078125 337 c 1
 81.0078125 586 60.0078125 839 60.0078125 1090 c 0
146.0078125 920 m 2
 146.0078125 767 150.0078125 616 170.0078125 466 c 0
 170.0078125 464 l 1
 170.0078125 463 l 0
 170.0078125 324 179.0078125 182 283.0078125 105 c 1
 383.0078125 111 394.0078125 259 394.0078125 358 c 0
 394.0078125 450 381.0078125 527 367.0078125 621 c 1
 342.0078125 774 340.0078125 929 322.0078125 1079 c 1
 308.0078125 1182 303.0078125 1354 197.0078125 1354 c 0
 164.0078125 1354 146.0078125 1156 146.0078125 1006 c 0
 146.0078125 920 l 2
250.0078125 1545 m 1
 230.0078125 1582 l 1
 230.0078125 1587 l 0
 230.0078125 1628 252.0078125 1665 302.0078125 1665 c 0
 333.0078125 1665 379.0078125 1647 379.0078125 1599 c 0
 379.0078125 1554 337.0078125 1524 297.0078125 1524 c 0
 293.0078125 1524 l 1
 250.0078125 1545 l 1
EndSplineSet
Validated: 524321
EndChar

StartChar: quoteleft
Encoding: 258 8216 61
Width: 356
Flags: HW
LayerCount: 2
Fore
SplineSet
300 1549 m 1
 292 1509 l 1
 287 1505 l 0
 246 1466 194 1424 188 1381 c 1
 219 1359 246 1323 246 1280 c 0
 246 1224 189 1196 148 1196 c 0
 96 1196 74 1235 61 1269 c 0
 57 1279 l 1
 62 1285 l 1
 60 1295 60 1301 60 1307 c 0
 60 1377 148 1572 244 1575 c 0
 249 1575 l 1
 300 1549 l 1
EndSplineSet
Validated: 1
EndChar

StartChar: a
Encoding: 97 97 62
Width: 621
Flags: HW
HStem: 303 68<290 413> 1323 41G<289 312 358 383>
VStem: 407 139<372 561> 452 119<-15 295>
LayerCount: 2
Fore
SplineSet
290 303 m 1xd0
 286 305 l 2
 264 315 232 315 206 315 c 1
 202 276 l 1
 199 251 181 -10 104 -10 c 0
 79 -10 42 9 42 43 c 0
 42 55 47 58 47 58 c 1
 47 60 l 0
 106 285 141 516 180 745 c 0
 201 866 234 982 252 1102 c 1
 258 1145 268 1319 289 1354 c 0
 295 1364 l 1
 307 1364 l 0
 318 1364 327 1362 335 1362 c 0
 348 1362 353 1363 358 1368 c 0
 364 1374 l 1
 372 1374 l 0
 394 1374 430 1360 430 1324 c 0
 430 1198 444 1072 456 944 c 1
 468 807 483 668 507 534 c 1
 519 471 546 400 546 328 c 0xe0
 546 310 536 299 536 299 c 1
 537 212 571 132 571 37 c 0
 571 22 568 -2 544 -16 c 0
 539 -18 l 1
 534 -18 l 0
 499 -18 452 -15 452 47 c 0
 452 129 436 218 422 299 c 1
 397 304 374 305 348 305 c 0
 331 305 314 303 294 303 c 0
 290 303 l 1xd0
271 670 m 1
 259 611 225 455 225 406 c 1
 238 387 369 372 413 371 c 1
 407 400 407 418 407 442 c 0
 407 489 l 0
 407 679 369 874 351 1064 c 1
 323 929 296 802 271 670 c 1
EndSplineSet
Validated: 1
EndChar

StartChar: b
Encoding: 98 98 63
Width: 491
Flags: HW
LayerCount: 2
Fore
SplineSet
130 -23 m 0
 91 -23 72 10 71 38 c 0
 69 61 69 79 69 101 c 0
 69 242 89 384 89 521 c 0
 89 580 85 639 85 698 c 0
 85 858 98 1015 98 1173 c 0
 98 1209 98 1245 96 1281 c 1
 87 1292 l 1
 87 1311 l 0
 87 1341 98 1382 151 1382 c 0
 173 1382 352 1355 356 1298 c 0
 356 1293 l 1
 346 1272 417 1088 417 1028 c 0
 417 955 412 880 392 811 c 1
 397 811 l 1
 385 783 l 0
 372 754 347 723 333 702 c 1
 416 625 423 496 427 408 c 1
 429 356 l 1
 429 328 l 0
 429 156 338 -23 130 -23 c 0
193 244 m 1
 189 238 l 2
 183 227 180 191 180 150 c 0
 180 125 180 99 181 80 c 1
 263 95 325 196 325 279 c 0
 325 301 339 621 195 646 c 1
 189 558 186 476 186 389 c 0
 186 343 183 292 191 252 c 0
 193 244 l 1
190 791 m 0
 190 769 l 2
 191 765 193 760 193 760 c 1
 287 761 306 898 306 1012 c 0
 306 1057 303 1093 301 1130 c 1
 297 1134 l 1
 296 1141 l 0
 292 1205 271 1289 217 1292 c 1
 199 1268 190 1131 190 1044 c 0
 190 971 192 968 192 934 c 0
 192 886 190 840 190 791 c 0
EndSplineSet
Validated: 33
EndChar

StartChar: c
Encoding: 99 99 64
Width: 505
Flags: HW
HStem: -33 105<294.036 371.036> -31 122<407.036 449.036> 1264 99<306.036 415.036>
VStem: 56.0356 123<142 819 829 1144>
LayerCount: 2
Fore
SplineSet
294.036132812 -33 m 1xb0
 290.036132812 -30 l 2
 261.036132812 -15 223.036132812 -15 185.036132812 14 c 1
 61.0361328125 102 56.0361328125 309 56.0361328125 454 c 0
 56.0361328125 680 l 0
 56.0361328125 824 50.0361328125 1200 193.036132812 1310 c 1
 231.036132812 1338 271.036132812 1344 301.036132812 1361 c 0
 306.036132812 1364 l 1
 396.036132812 1364 l 1
 398.036132812 1363 l 0
 411.036132812 1360 453.036132812 1355 453.036132812 1314 c 0
 453.036132812 1307 l 1
 415.036132812 1264 l 1
 320.036132812 1264 l 0
 203.036132812 1264 179.036132812 943 179.036132812 833 c 0
 179.036132812 829 l 1
 175.036132812 819 l 1
 175.036132812 686 166.036132812 552 166.036132812 421 c 0
 166.036132812 267 183.036132812 73 363.036132812 73 c 0xb0
 377.036132812 73 391.036132812 77 401.036132812 86 c 0
 407.036132812 91 l 1
 414.036132812 91 l 0
 431.036132812 91 465.036132812 83 465.036132812 49 c 0
 465.036132812 4 393.036132812 -24 375.036132812 -31 c 0x70
 371.036132812 -33 l 1
 294.036132812 -33 l 1xb0
EndSplineSet
Validated: 524321
EndChar

StartChar: d
Encoding: 100 100 65
Width: 610
Flags: HW
LayerCount: 2
Fore
SplineSet
125 -10 m 0
 78 -10 86 63 86 63 c 1
 80 182 78 293 78 409 c 0
 78 566 82 722 82 879 c 0
 82 999 81 1125 75 1244 c 1
 60 1261 58 1276 58 1292 c 0
 58 1326 96 1356 127 1356 c 0
 163 1356 182 1323 188 1320 c 1
 206 1311 248 1313 284 1296 c 1
 346 1267 391 1206 438 1173 c 0
 452 1163 l 1
 446 1151 l 1
 456 1130 494 1090 509 1053 c 1
 539 973 543 877 543 809 c 0
 543 776 541 747 541 716 c 0
 541 684 539 648 549 630 c 0
 552 623 l 1
 551 616 l 0
 503 369 560 143 276 -8 c 0
 272 -10 l 1
 125 -10 l 0
204 113 m 1
 209 110 l 1
 213 90 l 1
 251 90 l 1
 269 110 283 119 302 136 c 0
 410 235 441 441 441 612 c 0
 441 638 439 662 439 686 c 1
 439 686 429 874 428 892 c 1
 422 1026 335 1249 197 1261 c 1
 188 1218 183 1074 183 903 c 0
 183 623 195 281 205 141 c 0
 205 139 l 1
 204 113 l 1
EndSplineSet
Validated: 33
EndChar

StartChar: e
Encoding: 101 101 66
Width: 455
Flags: HW
HStem: -27 97<193 414> 695 123<187 355> 720 98<186 242> 1309 41G<134 168>
VStem: 75 115<71 89 90 720 818 1026 1039 1239> 89 100<446 720 818 1239>
LayerCount: 2
Fore
SplineSet
75 35 m 0xb8
 75 50 77 67 77 78 c 0
 76 80 76 79 75 81 c 0
 68 90 l 1
 72 100 l 0
 81 123 85 146 85 174 c 0
 85 260 75 348 75 437 c 0xb8
 75 637 89 835 89 1035 c 0xb4
 89 1113 81 1193 81 1274 c 0
 81 1318 106 1350 161 1350 c 0
 174 1350 190 1347 205 1335 c 1
 235 1329 397 1331 403 1261 c 0
 403 1260 l 0
 403 1227 361 1209 354 1205 c 0
 346 1200 l 1
 337 1203 l 0
 292 1217 230 1235 188 1239 c 1
 190 1209 190 1187 190 1162 c 0xb8
 190 1058 182 956 182 854 c 0
 182 821 188 818 190 818 c 0
 210 818 232 822 259 822 c 0
 274 822 356 826 360 768 c 0
 360 767 l 1
 360 740 344 695 298 695 c 0xd4
 281 695 256 701 242 712 c 1
 186 720 l 1
 190 665 190 619 190 568 c 0
 190 474 186 379 186 286 c 0
 186 233 188 181 192 128 c 1
 196 73 203 71 259 71 c 0
 281 71 306 75 335 75 c 0
 344 75 415 81 415 29 c 0
 415 -33 323 -27 306 -27 c 0
 137 -27 l 0
 95 -27 77 4 75 33 c 0
 75 34 l 1
 75 35 l 0xb8
EndSplineSet
Validated: 33
EndChar

StartChar: f
Encoding: 102 102 67
Width: 483
Flags: HW
LayerCount: 2
Fore
SplineSet
61 13 m 1
 62 24 l 2
 78 184 80 344 80 505 c 0
 80 664 91 824 99 983 c 1
 97 982 95 980 93 980 c 0
 86 980 70 996 70 1002 c 0
 70 1008 86 1024 93 1024 c 2
 101 1024 l 1
 106 1118 109 1212 109 1306 c 0
 109 1351 160 1364 185 1364 c 0
 209 1364 451 1362 451 1284 c 0
 451 1227 372 1229 357 1229 c 2
 351 1229 l 1
 347 1231 l 2
 320 1246 280 1249 244 1249 c 0
 236 1249 230 1249 227 1249 c 1
 226 1244 221 1232 217 1223 c 1
 216 1077 197 945 197 809 c 2
 197 752 l 1
 220 751 334 767 334 702 c 0
 334 661 291 644 265 644 c 0
 235 644 212 656 197 656 c 0
 189 656 181 614 181 579 c 2
 181 354 l 2
 181 260 193 168 193 71 c 0
 193 43 188 -29 123 -29 c 2
 116 -29 l 1
 61 13 l 1
EndSplineSet
Validated: 33
EndChar

StartChar: g
Encoding: 103 103 68
Width: 638
Flags: HW
LayerCount: 2
Fore
SplineSet
140 55 m 1
 74 138 50 519 50 624 c 0
 50 719 64 814 70 906 c 1
 82 1070 87 1356 349 1356 c 0
 369 1356 433 1357 433 1307 c 0
 433 1268 391 1255 371 1255 c 0
 355 1255 340 1260 332 1260 c 0
 177 1260 166 768 166 630 c 0
 166 584 167 536 172 492 c 1
 246 367 133 86 363 86 c 0
 462 86 465 311 465 450 c 0
 465 513 l 1
 451 521 434 522 414 522 c 0
 409 522 393 520 375 520 c 0
 355 520 306 521 306 565 c 0
 306 613 352 621 375 621 c 0
 388 621 584 631 584 561 c 0
 584 506 562 456 562 412 c 0
 562 312 570 211 570 109 c 0
 570 100 l 1
 564 95 l 0
 507 40 431 -14 340 -14 c 0
 277 -14 186 -4 140 55 c 1
EndSplineSet
Validated: 33
EndChar

StartChar: h
Encoding: 104 104 69
Width: 571
Flags: HW
LayerCount: 2
Fore
SplineSet
386 -2 m 1
 385 18 l 2
 381 192 375 371 375 545 c 0
 374 547 374 547 373 549 c 2
 371 553 l 1
 371 557 l 2
 371 569 376 576 377 579 c 0
 377 596 375 618 373 633 c 1
 359 636 l 1
 344 632 332 631 318 631 c 0
 268 631 227 650 190 651 c 1
 187 650 l 1
 186 571 181 494 181 419 c 0
 182 417 182 419 183 417 c 2
 187 411 l 1
 187 405 l 2
 187 295 199 185 199 73 c 0
 199 54 192 2 144 2 c 0
 70 2 78 124 78 141 c 0
 78 263 82 384 82 505 c 0
 82 527 80 676 77 693 c 1
 74 700 l 1
 78 709 l 2
 83 718 86 808 86 831 c 0
 86 985 72 1140 72 1296 c 0
 72 1322 92 1354 127 1354 c 0
 195 1354 189 1239 189 1214 c 0
 189 1051 181 875 181 722 c 1
 210 712 294 711 320 711 c 1
 320 768 l 1
 368 720 l 1
 375 727 377 739 377 758 c 0
 377 944 350 1133 350 1323 c 0
 350 1357 382 1374 406 1374 c 0
 423 1374 443 1362 448 1361 c 2
 463 1357 l 1
 463 1341 l 2
 463 1032 490 725 490 414 c 0
 490 283 492 152 502 22 c 2
 502 16 l 1
 456 -69 l 1
 449 -8 l 1
 439 -4 415 -2 406 -2 c 2
 386 -2 l 1
EndSplineSet
Validated: 33
EndChar

StartChar: i
Encoding: 105 105 70
Width: 499
Flags: HW
HStem: 16 107<130 192 303 463> 1256 93<29 180>
VStem: 179 104<142 1033> 193 102<136 570 584 1242>
LayerCount: 2
Fore
SplineSet
259 0 m 0xd0
 244 0 211 -1 192 20 c 1
 184 19 178 18 169 18 c 0
 150 18 112 19 95 49 c 0
 93 53 l 1
 93 58 l 0
 93 89 120 100 124 105 c 0
 130 112 l 1
 189 112 l 1
 192 127 193 133 193 142 c 0xd0
 193 286 179 431 179 577 c 0
 179 733 189 888 189 1040 c 0
 189 1112 187 1185 180 1254 c 1
 165 1256 154 1256 138 1256 c 0
 125 1256 109 1252 89 1252 c 0
 57 1252 29 1270 29 1306 c 0
 29 1346 89 1350 99 1350 c 0
 122 1350 404 1361 404 1270 c 0
 404 1260 401 1251 398 1245 c 0
 393 1235 l 1
 326 1230 l 1
 320 1234 l 0
 313 1239 299 1242 286 1242 c 1
 289 1213 289 1182 289 1151 c 0
 289 994 283 834 283 678 c 0xe0
 283 534 298 389 298 243 c 0
 298 229 295 204 295 181 c 0
 295 160 298 140 299 136 c 1
 305 127 l 1
 303 123 l 1
 312 121 317 122 324 122 c 0
 343 122 362 124 384 124 c 0
 396 124 465 129 465 76 c 0
 465 39 433 16 400 16 c 0
 374 16 351 23 332 23 c 0
 312 23 299 0 259 0 c 0xd0
EndSplineSet
Validated: 33
EndChar

StartChar: j
Encoding: 106 106 71
Width: 520
Flags: HW
LayerCount: 2
Fore
SplineSet
25 -187 m 1
 24 -185 23 -178 23 -176 c 0
 23 -135 174 -61 184 -50 c 1
 226 -4 244 118 244 186 c 0
 244 536 226 888 226 1237 c 1
 220 1248 l 1
 194 1254 64 1257 64 1316 c 0
 64 1353 117 1360 128 1360 c 0
 166 1360 490 1331 490 1256 c 0
 490 1222 458 1210 437 1210 c 0
 393 1210 359 1228 330 1230 c 1
 328 1223 328 1215 328 1210 c 0
 328 933 349 658 349 381 c 0
 349 157 l 1
 347 153 l 0
 337 132 336 106 336 78 c 0
 336 -20 275 -252 107 -252 c 0
 84 -252 l 1
 25 -193 l 1
 25 -187 l 1
EndSplineSet
Validated: 1
EndChar

StartChar: k
Encoding: 107 107 72
Width: 637
Flags: HW
LayerCount: 2
Fore
SplineSet
544 -37 m 0
 417 -37 283 563 252 757 c 1
 214 682 184 622 184 539 c 0
 184 487 173 437 173 391 c 0
 173 129 l 0
 173 95 188 56 188 12 c 0
 188 -23 152 -33 134 -33 c 0
 95 -33 69 -14 69 29 c 0
 69 403 l 0
 69 489 87 573 87 654 c 0
 87 783 108 912 108 1037 c 0
 108 1319 l 1
 110 1323 l 0
 122 1347 145 1356 167 1356 c 0
 199 1356 227 1328 227 1296 c 0
 227 1291 l 1
 224 1286 l 0
 208 1258 208 1233 208 1198 c 0
 208 1076 202 950 200 830 c 1
 277 962 441 1343 493 1343 c 0
 516 1343 565 1335 569 1291 c 0
 569 1284 l 1
 565 1279 l 0
 474 1149 417 1058 349 918 c 1
 349 873 345 835 345 795 c 0
 345 677 472 253 533 143 c 1
 550 112 599 71 599 14 c 0
 599 -21 569 -37 544 -37 c 0
EndSplineSet
Validated: 1
EndChar

StartChar: l
Encoding: 108 108 73
Width: 467
Flags: HW
LayerCount: 2
Fore
SplineSet
372 -28 m 0
 317 -12 255 -6 195 -6 c 0
 181 -6 160 -25 125 -25 c 0
 82 -25 72 21 70 39 c 0
 70 42 l 1
 70 45 l 0
 74 62 74 85 74 107 c 0
 74 171 75 234 76 298 c 0
 80 516 90 734 90 952 c 0
 90 959 l 1
 96 966 l 1
 90 1032 86 1099 86 1165 c 0
 86 1181 75 1350 152 1350 c 0
 178 1350 201 1328 201 1302 c 0
 201 1245 187 1195 187 1145 c 0
 187 983 193 821 193 658 c 0
 193 654 l 1
 191 650 l 0
 182 632 181 571 181 543 c 0
 181 488 185 431 185 374 c 0
 185 371 l 1
 181 360 l 1
 180 343 179 347 179 344 c 0
 179 337 180 329 182 325 c 0
 185 321 l 1
 179 131 l 1
 186 118 185 107 185 102 c 0
 185 78 234 77 318 77 c 0
 362 77 437 78 437 20 c 0
 437 -18 390 -26 384 -28 c 0
 378 -30 l 1
 372 -28 l 0
EndSplineSet
Validated: 33
EndChar

StartChar: m
Encoding: 109 109 74
Width: 1013
Flags: HW
LayerCount: 2
Fore
SplineSet
955 -18 m 0
 955 -42 939 -106 889 -106 c 0
 820 -106 828 23 828 45 c 0
 828 246 830 445 816 640 c 0
 812 693 799 749 799 807 c 0
 799 892 807 978 807 1061 c 0
 807 1066 807 1073 807 1079 c 1
 741 887 616 380 594 290 c 1
 590 270 591 115 512 115 c 0
 453 115 430 154 430 203 c 0
 430 282 291 872 219 1083 c 1
 202 750 179 421 179 90 c 0
 179 63 179 36 181 10 c 0
 181 6 l 1
 180 2 l 0
 170 -28 141 -39 117 -39 c 0
 99 -39 62 -20 62 10 c 0
 62 431 125 847 125 1264 c 0
 125 1266 113 1276 113 1302 c 0
 113 1351 175 1352 189 1352 c 0
 270 1352 257 1234 260 1218 c 1
 279 1113 347 1015 377 902 c 0
 399 818 427 733 444 648 c 1
 471 594 l 1
 471 592 l 0
 486 516 509 436 522 357 c 1
 589 567 726 1090 742 1179 c 1
 748 1208 751 1348 836 1348 c 0
 858 1348 908 1330 908 1292 c 0
 908 1181 912 476 932 426 c 1
 934 421 l 1
 934 416 l 0
 934 346 930 276 930 207 c 0
 930 144 932 80 946 21 c 0
 946 20 l 1
 947 13 955 1 955 -18 c 0
EndSplineSet
Validated: 33
EndChar

StartChar: n
Encoding: 110 110 75
Width: 827
Flags: HW
HStem: -4 43G<104 156 577 608> 1307 41G<153 175> 1316 41G<127 153>
VStem: 71 106<289 1150> 83 106<-3 289> 649 111<781 1109 1125 1337>
LayerCount: 2
Fore
SplineSet
541 97 m 2xcc
 566 171 461 353 437 430 c 1
 423 454 387 567 381 586 c 0
 357 662 241 1021 179 1152 c 1
 175 1121 173 1094 173 1065 c 0
 173 1011 177 957 177 903 c 0xd4
 177 869 173 836 173 805 c 0
 173 760 180 710 182 662 c 2
 182 641 l 1
 175 641 l 1
 175 556 181 312 188 292 c 2
 190 289 l 1
 190 105 l 1
 198 88 198 71 198 57 c 0
 198 27 175 -4 139 -4 c 0
 69 -4 75 108 75 123 c 0
 75 169 83 211 83 252 c 0xcc
 83 442 71 633 71 825 c 0xd4
 71 944 83 1061 83 1177 c 0
 83 1222 75 1302 127 1345 c 2
 142 1357 l 1xac
 153 1345 l 1
 169 1348 l 1
 175 1346 l 2
 211 1331 215 1298 220 1279 c 0
 283 1018 427 771 512 506 c 0
 547 395 564 273 607 171 c 1
 641 523 649 874 649 1227 c 0
 649 1240 644 1256 644 1278 c 0
 644 1295 649 1341 694 1341 c 0
 741 1341 759 1292 759 1264 c 2
 759 1125 l 1
 749 1109 l 1
 748 961 720 93 681 17 c 2
 676 8 l 1
 666 6 l 2
 663 5 657 3 649 1 c 1
 649 -33 l 1
 621 -6 l 1
 615 -7 609 -8 605 -8 c 0
 549 -8 544 76 542 80 c 2
 538 88 l 1
 541 97 l 2xcc
EndSplineSet
Validated: 33
EndChar

StartChar: o
Encoding: 111 111 76
Width: 651
Flags: HW
HStem: -39 80<253.122 380.122> 1274 102<199.122 257.122>
VStem: 54.1221 104<273 1155> 480.122 104<198 783 793 1004>
LayerCount: 2
Fore
SplineSet
584.122070312 550 m 0
 584.122070312 398 577.122070312 -39 314.122070312 -39 c 0
 48.1220703125 -39 54.1220703125 542 54.1220703125 713 c 0
 54.1220703125 773 44.1220703125 1376 205.122070312 1376 c 0
 241.122070312 1376 256.122070312 1351 257.122070312 1351 c 0
 381.122070312 1311 425.122070312 1351 495.122070312 1236 c 0
 566.122070312 1118 584.122070312 926 584.122070312 797 c 0
 584.122070312 793 l 1
 580.122070312 783 l 1
 580.122070312 705 584.122070312 629 584.122070312 550 c 0
158.122070312 717 m 0
 158.122070312 665 162.122070312 609 162.122070312 555 c 0
 162.122070312 463 192.122070312 41 306.122070312 41 c 0
 461.122070312 41 480.122070312 425 480.122070312 563 c 0
 480.122070312 721 458.122070312 881 457.122070312 1042 c 1
 447.122070312 1062 l 1
 453.122070312 1077 l 1
 450.122070312 1186 376.122070312 1274 281.122070312 1274 c 0
 206.122070312 1274 l 1
 189.122070312 1214 178.122070312 961 168.122070312 907 c 1
 168.122070312 842 158.122070312 778 158.122070312 717 c 0
EndSplineSet
Validated: 524321
EndChar

StartChar: p
Encoding: 112 112 77
Width: 483
Flags: HW
LayerCount: 2
Fore
SplineSet
96 -17 m 1
 94 -8 l 2
 75 87 71 186 71 282 c 0
 71 405 79 527 79 648 c 1
 72 665 67 678 67 697 c 0
 67 703 l 1
 70 708 l 0
 84 729 87 840 87 880 c 0
 87 937 83 1234 76 1259 c 1
 74 1266 l 1
 77 1273 l 0
 78 1274 88 1335 126 1335 c 0
 216 1335 l 0
 264 1335 332 1291 363 1265 c 1
 424 1211 421 1076 421 1016 c 0
 421 809 412 694 186 625 c 1
 186 404 l 0
 186 277 202 145 202 16 c 0
 202 -19 178 -41 143 -41 c 0
 137 -41 l 1
 96 -17 l 1
184 1196 m 0
 184 1099 194 1001 194 901 c 0
 194 838 186 771 186 714 c 1
 189 709 l 1
 307 722 315 946 315 1059 c 0
 315 1154 305 1231 208 1231 c 0
 183 1231 184 1228 184 1196 c 0
EndSplineSet
Validated: 33
EndChar

StartChar: q
Encoding: 113 113 78
Width: 644
Flags: HW
LayerCount: 2
Fore
SplineSet
345.103515625 -389 m 1
 345.103515625 -381 l 2
 345.103515625 -276 320.103515625 -168 300.103515625 -64 c 1
 163.103515625 -35 96.103515625 27 76.103515625 237 c 1
 60.103515625 393 54.103515625 549 54.103515625 705 c 0
 54.103515625 833 42.103515625 1354 276.103515625 1368 c 0
 281.103515625 1368 l 1
 285.103515625 1366 l 0
 310.103515625 1355 339.103515625 1354 373.103515625 1340 c 1
 573.103515625 1249 578.103515625 978 578.103515625 812 c 0
 578.103515625 719 l 0
 578.103515625 591 551.103515625 40 425.103515625 -36 c 1
 412.103515625 -44 399.103515625 -49 396.103515625 -51 c 1
 396.103515625 -143 423.103515625 -241 443.103515625 -332 c 1
 452.103515625 -335 547.103515625 -321 547.103515625 -387 c 0
 547.103515625 -414 527.103515625 -434 500.103515625 -434 c 0
 467.103515625 -434 382.103515625 -430 350.103515625 -395 c 0
 345.103515625 -389 l 1
148.103515625 702 m 0
 148.103515625 696 154.103515625 683 154.103515625 664 c 2
 154.103515625 575 l 0
 154.103515625 361 174.103515625 6 293.103515625 6 c 0
 305.103515625 6 324.103515625 18 353.103515625 18 c 0
 410.103515625 18 476.103515625 425 476.103515625 514 c 0
 476.103515625 872 l 0
 476.103515625 1030 455.103515625 1294 271.103515625 1294 c 0
 171.103515625 1294 148.103515625 817 148.103515625 702 c 0
EndSplineSet
Validated: 524321
EndChar

StartChar: r
Encoding: 114 114 79
Width: 504
Flags: HW
LayerCount: 2
Fore
SplineSet
383.000976562 -22 m 1
 379.000976562 -18 l 2
 312.000976562 54 272.000976562 404 227.000976562 588 c 0
 214.000976562 641 200.000976562 678 192.000976562 688 c 1
 188.000976562 688 l 0
 164.000976562 688 163.000976562 686 163.000976562 680 c 0
 163.000976562 536 174.000976562 391 182.000976562 245 c 1
 184.000976562 199 187.000976562 75 197.000976562 41 c 0
 199.000976562 34 l 1
 177.000976562 -18 l 1
 123.000976562 -18 l 1
 98.0009765625 10 l 1
 98.0009765625 18 l 0
 82.0009765625 435 65.0009765625 853 65.0009765625 1271 c 0
 65.0009765625 1298 64.0009765625 1366 130.000976562 1366 c 0
 261.000976562 1366 380.000976562 1300 380.000976562 1153 c 0
 380.000976562 1008 l 0
 380.000976562 914 289.000976562 767 275.000976562 738 c 1
 279.000976562 720 290.000976562 672 306.000976562 608 c 0
 350.000976562 427 428.000976562 121 434.000976562 104 c 1
 443.000976562 82 468.000976562 52 468.000976562 14 c 0
 468.000976562 -4 458.000976562 -35 425.000976562 -35 c 0
 410.000976562 -35 394.000976562 -26 388.000976562 -24 c 0
 383.000976562 -22 l 1
163.000976562 1260 m 0
 163.000976562 1101 170.000976562 942 171.000976562 783 c 1
 245.000976562 810 284.000976562 1021 284.000976562 1098 c 0
 284.000976562 1200 272.000976562 1290 171.000976562 1292 c 1
 166.000976562 1283 163.000976562 1265 163.000976562 1260 c 0
EndSplineSet
Validated: 524321
EndChar

StartChar: s
Encoding: 115 115 80
Width: 445
Flags: HW
LayerCount: 2
Fore
SplineSet
53 42 m 0
 52 50 l 1
 73 83 l 1
 85 82 l 0
 115 79 139 68 157 68 c 0
 264 68 298 266 298 367 c 0
 298 640 53 780 53 1086 c 0
 53 1171 94 1378 235 1378 c 0
 267 1378 333 1351 333 1300 c 0
 333 1264 293 1264 286 1264 c 0
 258 1264 248 1276 243 1276 c 0
 179 1276 147 1145 147 1075 c 0
 147 1014 167 957 185 897 c 1
 198 863 l 1
 308 671 393 584 393 341 c 0
 393 206 344 -17 153 -20 c 1
 141 -25 l 1
 135 -24 l 0
 109 -20 59 -3 53 42 c 0
EndSplineSet
Validated: 1
EndChar

StartChar: t
Encoding: 116 116 81
Width: 493
Flags: HW
LayerCount: 2
Fore
SplineSet
260 38 m 1
 260 48 l 2
 260 95 256 144 256 193 c 0
 256 219 260 241 260 263 c 0
 260 277 258 290 253 303 c 0
 251 307 l 1
 251 310 l 0
 251 625 207 945 201 1261 c 1
 148 1262 45 1259 29 1313 c 0
 27 1319 l 1
 30 1325 l 0
 40 1352 67 1360 88 1360 c 0
 185 1360 275 1341 366 1341 c 0
 376 1341 388 1343 403 1343 c 0
 422 1343 460 1337 460 1296 c 0
 460 1256 417 1243 395 1243 c 0
 360 1243 328 1254 300 1257 c 1
 296 1248 l 0
 294 1245 294 1241 294 1233 c 0
 294 847 362 461 362 70 c 0
 362 39 335 12 303 12 c 0
 296 12 l 1
 260 38 l 1
EndSplineSet
Validated: 1
EndChar

StartChar: u
Encoding: 117 117 82
Width: 641
Flags: HW
HStem: -31 55<240 355> 1308 41G<59 92> 1348 41G<513 525>
VStem: 57 100<866 1335> 468 106<915 1377>
LayerCount: 2
Fore
SplineSet
555 866 m 0xb8
 495 712 607 -31 296 -31 c 0
 240 -31 177 8 145 46 c 1
 45 168 83 1088 57 1298 c 0
 56 1303 l 1
 77 1349 l 1xd8
 92 1347 l 0
 163 1338 157 1241 157 1214 c 0
 157 672 l 0
 157 529 186 386 186 238 c 0
 186 136 204 25 319 25 c 0
 409 25 429 361 442 558 c 1
 456 808 468 1060 468 1309 c 0
 468 1317 464 1329 464 1346 c 0
 464 1387 506 1389 520 1389 c 0
 532 1389 545 1388 557 1378 c 0
 579 1360 575 1331 575 1287 c 0
 575 1225 573 1129 563 1085 c 1
 565 1078 565 1075 565 1072 c 0
 565 1018 554 962 554 913 c 0
 554 901 556 889 556 873 c 0
 556 869 l 1
 555 866 l 0xb8
EndSplineSet
Validated: 33
EndChar

StartChar: v
Encoding: 118 118 83
Width: 666
Flags: HW
LayerCount: 2
Fore
SplineSet
270 5 m 1
 270 14 l 2
 270 161 246 313 221 460 c 0
 184 678 139 897 88 1113 c 1
 80 1148 32 1293 32 1322 c 0
 32 1347 57 1366 79 1366 c 0
 157 1366 171 1162 177 1142 c 1
 255 835 300 533 343 233 c 1
 364 332 376 437 387 535 c 1
 434 946 487 1094 532 1367 c 0
 534 1379 l 1
 578 1396 l 1
 584 1394 l 0
 594 1392 622 1382 622 1354 c 0
 622 1298 601 1229 591 1179 c 1
 566 1058 531 940 513 822 c 1
 493 700 487 573 470 448 c 1
 459 372 433 299 419 228 c 1
 412 190 427 -25 313 -25 c 0
 306 -25 l 1
 270 5 l 1
EndSplineSet
Validated: 1
EndChar

StartChar: w
Encoding: 119 119 84
Width: 802
Flags: HW
LayerCount: 2
Fore
SplineSet
470 335 m 1
 459 420 435 781 405 963 c 1
 400 915 396 870 396 823 c 0
 396 632 356 445 332 259 c 1
 328 235 319 -43 242 -43 c 0
 139 -43 152 368 134 522 c 1
 120 630 97 740 89 851 c 0
 83 932 82 1024 73 1111 c 0
 67 1174 57 1234 37 1286 c 0
 33 1295 l 1
 38 1303 l 0
 51 1325 73 1329 89 1329 c 0
 167 1329 149 1171 150 1159 c 1
 151 1146 153 1133 154 1120 c 0
 184 831 237 541 244 248 c 1
 274 452 303 654 310 859 c 0
 312 922 311 988 322 1053 c 1
 328 1095 336 1134 336 1173 c 0
 336 1186 l 1
 389 1209 l 1
 394 1209 l 0
 416 1209 449 1195 449 1161 c 0
 449 1154 446 1144 446 1144 c 1
 509 933 537 720 553 504 c 1
 559 430 560 351 572 285 c 1
 600 473 613 865 613 986 c 0
 613 1093 640 1195 640 1295 c 0
 640 1305 637 1312 634 1318 c 0
 631 1323 l 1
 631 1329 l 0
 631 1369 669 1380 693 1380 c 0
 716 1380 742 1370 742 1335 c 0
 742 1309 740 1275 733 1250 c 1
 737 1239 l 1
 735 1233 l 0
 721 1173 717 1114 717 1051 c 0
 717 1044 718 1040 718 1040 c 1
 723 1032 l 1
 710 990 l 1
 717 974 l 1
 713 966 l 0
 710 960 709 956 709 951 c 0
 709 941 713 931 715 917 c 0
 716 908 l 1
 709 899 l 1
 709 784 699 673 691 562 c 1
 685 471 680 379 668 286 c 1
 661 243 646 204 646 169 c 0
 646 145 656 -68 570 -68 c 0
 505 -68 516 31 515 41 c 0
 507 137 482 235 470 335 c 1
EndSplineSet
Validated: 33
EndChar

StartChar: x
Encoding: 120 120 85
Width: 471
Flags: HW
LayerCount: 2
Fore
SplineSet
95 1335 m 0
 159 1335 159 1220 160 1197 c 1
 199 1089 212 981 234 880 c 1
 251 977 268 1119 271 1161 c 1
 272 1173 270 1337 312 1349 c 0
 313 1349 l 1
 314 1349 l 0
 325 1351 337 1353 347 1355 c 0
 359 1358 l 1
 394 1313 l 1
 386 1301 l 0
 363 1267 357 1186 357 1137 c 0
 357 1132 359 1124 359 1113 c 0
 359 1105 l 1
 356 1102 l 1
 346 1018 326 939 309 859 c 0
 294 788 281 717 281 646 c 0
 281 608 385 161 402 117 c 1
 410 101 429 81 429 52 c 0
 429 21 402 4 377 4 c 0
 366 4 354 6 342 12 c 0
 333 17 l 1
 331 26 l 0
 298 165 260 310 231 448 c 1
 210 342 201 172 176 91 c 1
 179 79 179 73 179 66 c 0
 179 50 174 -6 127 -6 c 0
 114 -6 68 -4 68 38 c 0
 68 175 121 323 155 465 c 0
 171 532 183 598 183 660 c 0
 183 716 82 1181 59 1217 c 1
 54 1223 l 1
 54 1230 l 0
 54 1238 56 1243 56 1244 c 1
 55 1257 37 1264 37 1296 c 0
 37 1332 86 1335 95 1335 c 0
351 643 m 1
 392 643 l 1
 392 641 l 1
 351 641 l 1
 351 643 l 1
EndSplineSet
Validated: 1
EndChar

StartChar: y
Encoding: 121 121 86
Width: 513
Flags: HW
HStem: 1319 41G<385 431>
VStem: 239 92<365 662> 256 94<12 627>
LayerCount: 2
Fore
SplineSet
233 11 m 1xa0
 237 20 l 2
 251 54 256 300 256 360 c 0xa0
 256 458 243 565 239 662 c 1
 226 690 l 1
 232 715 l 1
 191 824 34 1207 32 1288 c 0
 32 1298 l 1
 76 1331 l 1
 85 1330 l 0
 150 1319 221 982 264 868 c 1
 269 878 277 901 285 934 c 0
 315 1058 346 1360 424 1360 c 0
 440 1360 471 1351 471 1320 c 0
 471 1279 443 1199 433 1165 c 1
 410 1086 383 1006 363 926 c 0
 346 857 334 789 333 725 c 1
 338 713 344 703 344 687 c 0
 344 659 331 644 331 630 c 0xc0
 331 572 348 514 348 449 c 0
 348 344 350 238 350 132 c 0
 350 118 362 -31 286 -31 c 0
 262 -31 244 -11 237 3 c 0
 233 11 l 1xa0
EndSplineSet
Validated: 33
EndChar

StartChar: z
Encoding: 122 122 87
Width: 493
Flags: HW
LayerCount: 2
Fore
SplineSet
96 -4 m 0
 66 -4 44 16 44 45 c 0
 44 93 100 280 115 332 c 1
 124 365 132 400 140 434 c 0
 156 505 170 577 188 649 c 0
 214 752 257 870 292 986 c 0
 321 1082 344 1181 347 1261 c 1
 291 1259 235 1249 176 1249 c 0
 145 1249 126 1278 126 1303 c 0
 126 1364 318 1356 374 1356 c 0
 395 1356 446 1353 446 1304 c 0
 446 1188 366 1017 349 935 c 0
 347 924 346 916 346 910 c 0
 346 908 l 1
 345 906 l 0
 322 797 256 610 208 422 c 0
 179 309 156 195 153 102 c 1
 168 101 178 100 192 100 c 0
 218 100 246 106 278 106 c 0
 287 106 358 112 358 59 c 0
 358 11 303 12 290 12 c 0
 247 12 208 18 169 18 c 0
 136 18 134 -4 96 -4 c 0
EndSplineSet
Validated: 33
EndChar

StartChar: cent
Encoding: 162 162 88
Width: 605
Flags: HW
LayerCount: 2
Fore
SplineSet
82 508 m 1
 57 621 55 729 55 842 c 0
 55 973 74 1167 218 1255 c 1
 216 1295 208 1328 208 1370 c 0
 208 1374 201 1456 256 1456 c 0
 262 1456 l 1
 290 1438 l 1
 288 1425 l 0
 286 1408 286 1392 286 1374 c 0
 286 1335 290 1290 295 1254 c 1
 308 1250 320 1246 337 1241 c 0
 387 1226 479 1201 479 1135 c 0
 479 1123 472 1087 440 1087 c 0
 394 1087 378 1140 373 1144 c 0
 372 1145 l 1
 371 1145 l 0
 363 1154 339 1153 312 1174 c 1
 303 1174 l 1
 307 924 364 687 364 430 c 0
 364 419 362 404 362 401 c 0
 362 397 364 392 366 389 c 1
 390 390 404 394 419 401 c 0
 457 418 484 454 515 501 c 0
 521 510 l 1
 532 510 l 0
 575 510 575 464 575 453 c 0
 575 396 504 352 449 328 c 0
 421 315 393 307 371 305 c 1
 366 274 362 249 362 223 c 0
 362 160 376 98 376 29 c 0
 376 3 353 -16 331 -16 c 0
 323 -16 l 1
 287 17 l 1
 289 28 l 2
 291 38 290 51 290 63 c 0
 290 108 282 153 282 203 c 0
 282 213 283 222 284 232 c 0
 285 241 288 253 290 261 c 1
 290 316 l 1
 202 350 102 394 82 508 c 1
165 976 m 2
 157 910 149 855 149 791 c 0
 149 693 156 435 278 421 c 1
 277 574 261 716 245 871 c 1
 239 960 235 1054 219 1132 c 1
 186 1095 167 1001 165 982 c 1
 166 980 l 1
 165 976 l 2
EndSplineSet
Validated: 33
EndChar

StartChar: sterling
Encoding: 163 163 89
Width: 712
Flags: HW
LayerCount: 2
Fore
SplineSet
39 49 m 0
 39 111 152 141 167 152 c 1
 181 163 196 187 206 218 c 0
 223 271 230 340 230 379 c 0
 230 459 213 538 192 618 c 0
 170 700 142 787 122 867 c 1
 100 870 78 887 78 915 c 0
 78 933 88 953 105 961 c 1
 102 1054 80 1139 80 1235 c 0
 80 1298 91 1626 222 1626 c 0
 287 1626 l 0
 329 1626 363 1588 390 1549 c 0
 424 1499 451 1438 451 1399 c 0
 451 1391 l 1
 421 1358 l 1
 412 1358 l 0
 364 1358 356 1401 348 1414 c 0
 345 1419 l 1
 345 1456 l 1
 333 1476 331 1498 327 1507 c 0
 326 1509 325 1509 325 1509 c 1
 324 1509 l 0
 316 1509 l 1
 310 1515 l 0
 296 1529 279 1539 264 1540 c 1
 255 1537 l 1
 236 1520 l 1
 229 1520 l 1
 202 1497 173 1306 173 1268 c 0
 173 1188 l 1
 196 1125 183 1001 192 971 c 1
 258 973 326 997 400 997 c 0
 423 997 449 980 449 950 c 0
 449 933 442 897 404 897 c 0
 339 897 272 893 212 883 c 1
 217 863 217 847 221 832 c 0
 224 819 238 795 238 772 c 0
 238 732 249 688 263 641 c 0
 287 561 320 471 320 375 c 0
 320 302 301 250 282 195 c 0
 278 185 275 172 272 163 c 1
 369 156 455 119 541 119 c 0
 575 119 593 120 623 133 c 0
 634 138 l 1
 680 105 l 1
 680 94 l 0
 680 23 586 29 564 29 c 0
 533 29 502 34 476 35 c 1
 464 27 l 1
 453 34 l 0
 418 55 289 69 282 70 c 1
 203 70 171 50 101 9 c 0
 94 5 l 1
 87 7 l 0
 78 9 39 15 39 49 c 0
EndSplineSet
Validated: 33
EndChar

StartChar: fraction
Encoding: 259 8260 90
Width: 512
Flags: HW
LayerCount: 2
Fore
SplineSet
475 1505 m 0
 475 1480 437 1334 433 1313 c 1
 359 972 280 636 202 294 c 0
 161 116 l 1
 153 84 148 -21 83 -27 c 0
 76 -27 l 1
 70 -23 l 0
 52 -11 40 9 40 31 c 0
 40 135 87 274 113 392 c 0
 193 746 277 1100 369 1453 c 0
 369 1454 l 1
 369 1454 378 1552 423 1552 c 0
 446 1552 475 1538 475 1505 c 0
EndSplineSet
Validated: 1
EndChar

StartChar: yen
Encoding: 165 165 91
Width: 890
Flags: HW
LayerCount: 2
Fore
SplineSet
839 796 m 2
 828 780 808 770 790 770 c 2
 695 770 l 1
 716 780 l 1
 534 780 l 1
 533 564 503 355 503 143 c 0
 503 126 505 108 505 90 c 0
 505 59 500 -4 438 -4 c 0
 426 -4 376 -4 376 41 c 2
 376 45 l 1
 378 49 l 1
 385 72 403 279 403 307 c 0
 403 464 419 620 419 774 c 0
 419 775 419 776 419 776 c 1
 335 775 262 772 181 766 c 2
 175 766 l 1
 170 769 l 2
 150 780 136 799 127 815 c 2
 123 823 l 1
 138 872 l 1
 153 872 l 2
 245 872 338 875 428 880 c 1
 430 905 430 929 430 954 c 0
 430 957 429 959 429 960 c 2
 428 961 l 1
 381 961 331 952 280 952 c 0
 270 952 145 943 145 1010 c 2
 145 1016 l 1
 169 1053 l 1
 180 1053 l 2
 236 1053 283 1051 340 1051 c 0
 367 1051 412 1053 430 1057 c 1
 430 1073 l 1
 353 1146 139 1613 34 1700 c 2
 26 1707 l 1
 26 1762 l 1
 40 1766 l 2
 45 1768 58 1776 73 1776 c 0
 144 1776 268 1548 295 1509 c 2
 298 1504 l 1
 299 1499 l 2
 302 1483 365 1392 382 1362 c 0
 395 1339 445 1244 474 1205 c 1
 490 1243 501 1278 513 1317 c 0
 538 1398 637 1756 678 1807 c 0
 690 1821 706 1831 727 1831 c 0
 754 1831 782 1812 782 1780 c 2
 782 1776 l 1
 780 1772 l 2
 708 1604 673 1416 608 1241 c 1
 605 1166 554 1107 544 1059 c 1
 556 1055 562 1055 573 1055 c 0
 645 1055 718 1065 794 1065 c 0
 829 1065 846 1016 849 1012 c 2
 852 1006 l 1
 852 1000 l 2
 847 941 688 954 680 954 c 2
 542 954 l 1
 541 929 540 906 539 885 c 1
 745 885 l 2
 755 885 770 887 784 887 c 0
 812 887 847 872 847 821 c 0
 847 815 846 809 844 804 c 2
 839 796 l 2
EndSplineSet
Validated: 33
EndChar

StartChar: currency
Encoding: 164 164 92
Width: 828
Flags: HW
LayerCount: 2
Fore
SplineSet
645 252 m 1
 635 270 626 288 618 301 c 1
 551 239 466 211 378 211 c 0
 308 211 241 253 196 298 c 1
 183 275 165 207 110 207 c 0
 60 207 49 246 49 279 c 0
 49 312 120 365 136 394 c 1
 102 457 104 530 104 592 c 0
 104 687 112 991 176 1081 c 1
 164 1110 79 1171 79 1212 c 0
 79 1239 101 1255 124 1255 c 0
 182 1255 211 1196 232 1170 c 1
 264 1203 326 1284 362 1284 c 0
 450 1284 517 1258 584 1214 c 1
 606 1238 646 1350 712 1350 c 0
 721 1350 l 1
 762 1305 l 1
 761 1296 l 0
 755 1244 668 1169 667 1143 c 1
 669 1128 695 1057 701 1039 c 1
 726 961 757 861 757 774 c 0
 757 689 739 605 718 525 c 1
 707 483 690 432 690 397 c 0
 690 340 767 304 767 248 c 0
 767 224 751 199 720 199 c 0
 693 199 649 208 645 252 c 1
262 412 m 2
 262 334 335 303 415 303 c 0
 600 303 645 619 645 780 c 0
 645 836 616 1040 583 1074 c 1
 548 1080 534 1112 532 1133 c 1
 507 1163 449 1184 407 1184 c 0
 388 1184 314 1130 297 1099 c 1
 313 1084 l 1
 313 1075 l 0
 313 1049 308 1030 292 1019 c 0
 277 1009 263 1012 262 1012 c 1
 242 979 210 745 210 696 c 0
 210 686 212 675 214 663 c 0
 215 659 l 1
 214 654 l 0
 209 633 208 611 208 586 c 0
 208 524 213 465 255 427 c 0
 262 421 l 1
 262 412 l 2
EndSplineSet
Validated: 33
EndChar

StartChar: quotedblleft
Encoding: 260 8220 93
Width: 569
Flags: HW
LayerCount: 2
Fore
SplineSet
300 1549 m 1
 292 1509 l 1
 287 1505 l 0
 246 1466 194 1424 188 1381 c 1
 219 1359 246 1323 246 1280 c 0
 246 1224 189 1196 148 1196 c 0
 96 1196 74 1235 61 1269 c 0
 57 1279 l 1
 62 1285 l 1
 60 1295 60 1301 60 1307 c 0
 60 1377 148 1572 244 1575 c 0
 249 1575 l 1
 300 1549 l 1
513 1549 m 1
 504 1509 l 1
 500 1505 l 0
 459 1466 407 1424 401 1381 c 1
 432 1359 459 1323 459 1280 c 0
 459 1224 402 1196 361 1196 c 0
 309 1196 287 1235 274 1269 c 0
 270 1279 l 1
 275 1285 l 1
 273 1295 273 1301 273 1307 c 0
 273 1377 361 1572 457 1575 c 0
 462 1575 l 1
 513 1549 l 1
EndSplineSet
Validated: 1
EndChar

StartChar: guillemotleft
Encoding: 171 171 94
Width: 698
Flags: HW
LayerCount: 2
Fore
SplineSet
563 -7 m 2
 518 60 483 152 445 233 c 2
 343 446 l 2
 329 476 310 508 297 541 c 0
 283 580 214 631 214 698 c 0
 214 769 406 1157 438 1254 c 0
 447 1278 469 1432 532 1442 c 2
 541 1443 l 1
 584 1410 l 1
 582 1398 l 2
 550 1192 328 859 326 702 c 1
 342 651 598 137 637 67 c 1
 662 48 l 1
 660 36 l 2
 658 23 647 -20 611 -20 c 0
 596 -20 589 -16 584 -16 c 2
 569 -16 l 1
 563 -7 l 2
441 -55 m 0
 387 -55 328 99 318 117 c 0
 278 192 39 641 39 698 c 0
 39 739 265 1267 300 1361 c 1
 300 1364 l 1
 301 1367 l 2
 304 1374 326 1460 361 1482 c 1
 361 1483 l 1
 363 1483 l 1
 368 1486 372 1487 377 1487 c 0
 399 1487 435 1477 439 1440 c 2
 439 1433 l 1
 436 1427 l 2
 399 1368 374 1295 347 1227 c 0
 300 1107 255 984 210 861 c 0
 202 840 160 718 145 688 c 1
 165 571 502 43 502 -12 c 0
 502 -52 449 -55 441 -55 c 0
EndSplineSet
Validated: 1
EndChar

StartChar: guilsinglleft
Encoding: 261 8249 95
Width: 524
Flags: HW
LayerCount: 2
Fore
SplineSet
389 -7 m 2
 344 60 309 152 271 233 c 1
 168 446 l 1
 154 476 136 508 123 541 c 1
 109 580 40 631 40 698 c 0
 40 769 232 1157 264 1254 c 1
 273 1278 295 1432 358 1442 c 0
 367 1443 l 1
 410 1410 l 1
 408 1398 l 0
 376 1192 154 859 152 702 c 1
 168 651 424 137 463 67 c 1
 488 48 l 1
 486 36 l 0
 484 23 473 -20 437 -20 c 0
 422 -20 415 -16 410 -16 c 0
 395 -16 l 1
 389 -7 l 2
EndSplineSet
Validated: 1
EndChar

StartChar: guilsinglright
Encoding: 262 8250 96
Width: 523
Flags: HW
LayerCount: 2
Fore
SplineSet
117 -16 m 2
 109 -16 102 -20 87 -20 c 0
 51 -20 40 23 38 36 c 0
 36 48 l 1
 60 67 l 1
 102 143 356 655 371 702 c 1
 369 863 147 1192 115 1398 c 0
 114 1410 l 1
 157 1443 l 1
 166 1441 l 0
 230 1428 251 1281 260 1254 c 0
 292 1158 484 771 484 698 c 0
 484 633 415 580 401 542 c 0
 388 507 369 476 355 446 c 1
 179 81 l 1
 165 53 152 21 134 -7 c 0
 128 -16 l 1
 117 -16 l 2
EndSplineSet
Validated: 1
EndChar

StartChar: paragraph
Encoding: 182 182 97
Width: 887
Flags: HW
LayerCount: 2
Fore
SplineSet
666 102 m 0
 666 461 685 818 685 1176 c 0
 685 1324 670 1471 670 1622 c 0
 670 1646 672 1667 672 1688 c 0
 672 1742 665 1769 605 1771 c 1
 598 1752 596 1700 596 1688 c 0
 596 1454 623 1216 623 979 c 0
 623 673 603 364 585 62 c 1
 589 52 588 52 588 45 c 0
 588 8 549 -6 529 -6 c 0
 492 -6 470 20 470 55 c 0
 470 360 513 662 513 963 c 0
 513 1008 510 1056 509 1100 c 1
 353 1100 l 1
 349 1101 l 0
 229 1151 100 1140 54 1320 c 1
 46 1350 51 1366 44 1378 c 0
 41 1383 l 1
 41 1389 l 0
 41 1516 76 1703 205 1775 c 0
 257 1804 314 1808 359 1827 c 1
 416 1851 485 1845 534 1850 c 1
 554 1872 577 1872 594 1872 c 0
 629 1872 653 1855 674 1855 c 0
 691 1855 702 1856 716 1859 c 0
 729 1862 l 1
 737 1852 l 0
 738 1850 859 1846 859 1790 c 0
 859 1748 816 1741 797 1741 c 0
 791 1741 781 1742 779 1742 c 1
 780 1540 793 1343 793 1141 c 0
 793 848 781 556 781 264 c 0
 781 190 793 113 793 35 c 0
 793 2 765 -18 738 -18 c 0
 664 -18 666 75 666 102 c 0
146 1454 m 0
 146 1239 271 1192 470 1192 c 0
 518 1192 508 1193 508 1212 c 0
 508 1372 490 1533 490 1696 c 0
 490 1711 492 1731 492 1742 c 1
 471 1750 428 1751 406 1751 c 0
 261 1751 146 1595 146 1454 c 0
EndSplineSet
Validated: 33
EndChar

StartChar: quotesinglbase
Encoding: 263 8218 98
Width: 376
Flags: HW
LayerCount: 2
Fore
SplineSet
61 -173 m 1
 70 -133 l 1
 74 -129 l 0
 115 -90 168 -47 174 -4 c 1
 143 18 115 53 115 96 c 0
 115 152 172 180 213 180 c 0
 265 180 287 142 300 108 c 0
 304 98 l 1
 300 91 l 1
 302 81 302 76 302 70 c 0
 302 0 214 -196 118 -199 c 0
 113 -199 l 1
 61 -173 l 1
EndSplineSet
Validated: 1
EndChar

StartChar: quotedblbase
Encoding: 264 8222 99
Width: 603
Flags: HW
LayerCount: 2
Fore
SplineSet
103 -195 m 1
 59 -165 l 1
 66 -150 l 0
 98 -77 170 -58 178 -4 c 1
 147 18 119 53 119 96 c 0
 119 152 177 180 218 180 c 0
 274 180 306 129 306 82 c 0
 306 0 221 -195 109 -195 c 0
 103 -195 l 1
290 -173 m 1
 299 -133 l 1
 304 -129 l 0
 345 -90 397 -47 403 -4 c 1
 372 18 345 53 345 96 c 0
 345 152 402 180 443 180 c 0
 499 180 531 129 531 82 c 0
 531 7 452 -196 347 -199 c 0
 342 -199 l 1
 290 -173 l 1
EndSplineSet
Validated: 1
EndChar

StartChar: quotedblright
Encoding: 265 8221 100
Width: 604
Flags: HW
LayerCount: 2
Fore
SplineSet
54 1222 m 1
 63 1262 l 1
 67 1266 l 0
 108 1305 161 1347 167 1390 c 1
 136 1412 108 1448 108 1491 c 0
 108 1547 165 1575 206 1575 c 0
 258 1575 280 1536 293 1502 c 0
 297 1492 l 1
 292 1486 l 1
 294 1476 294 1470 294 1464 c 0
 294 1394 207 1199 111 1196 c 0
 105 1196 l 1
 54 1222 l 1
300 1222 m 1
 308 1262 l 1
 313 1266 l 0
 354 1305 406 1347 412 1390 c 1
 381 1412 354 1448 354 1491 c 0
 354 1547 411 1575 452 1575 c 0
 504 1575 526 1536 539 1502 c 0
 542 1492 l 1
 538 1486 l 1
 540 1476 540 1470 540 1464 c 0
 540 1394 452 1199 356 1196 c 0
 351 1196 l 1
 300 1222 l 1
EndSplineSet
Validated: 1
EndChar

StartChar: guillemotright
Encoding: 187 187 101
Width: 696
Flags: HW
LayerCount: 2
Fore
SplineSet
658 698 m 0
 658 641 419 192 379 117 c 0
 369 99 311 -55 257 -55 c 0
 249 -55 195 -52 195 -12 c 0
 195 42 534 575 553 688 c 1
 536 722 495 840 487 861 c 0
 442 984 397 1107 350 1227 c 0
 323 1295 299 1368 262 1427 c 2
 258 1433 l 1
 259 1440 l 2
 263 1477 298 1487 320 1487 c 0
 325 1487 330 1486 335 1483 c 1
 336 1483 l 1
 336 1482 l 1
 371 1460 394 1374 397 1367 c 2
 398 1364 l 1
 398 1361 l 1
 435 1263 658 739 658 698 c 0
117 -16 m 2
 109 -16 102 -20 87 -20 c 0
 51 -20 40 23 38 36 c 2
 36 48 l 1
 60 67 l 1
 102 143 356 655 371 702 c 1
 369 863 147 1192 115 1398 c 2
 114 1410 l 1
 157 1443 l 1
 166 1441 l 2
 230 1428 251 1281 260 1254 c 0
 292 1158 484 771 484 698 c 0
 484 633 415 580 401 542 c 0
 388 507 369 476 355 446 c 2
 179 81 l 2
 165 53 152 21 134 -7 c 2
 128 -16 l 1
 117 -16 l 2
EndSplineSet
Validated: 1
EndChar

StartChar: grave
Encoding: 96 96 102
Width: 506
Flags: HW
LayerCount: 2
Fore
SplineSet
180.385742188 1601 m 1
 168.385742188 1599 161.385742188 1597 149.385742188 1597 c 0
 128.385742188 1597 59.3857421875 1601 59.3857421875 1659 c 0
 59.3857421875 1668 54.3857421875 1704 80.3857421875 1721 c 0
 85.3857421875 1724 l 1
 92.3857421875 1724 l 0
 118.385742188 1724 164.385742188 1728 196.385742188 1699 c 1
 235.385742188 1685 434.385742188 1632 434.385742188 1565 c 0
 434.385742188 1533 399.385742188 1528 389.385742188 1528 c 0
 370.385742188 1528 213.385742188 1588 180.385742188 1601 c 1
EndSplineSet
Validated: 524321
EndChar

StartChar: acute
Encoding: 180 180 103
Width: 453
Flags: HW
LayerCount: 2
Fore
SplineSet
55 1339 m 0
 55 1383 290 1540 315 1563 c 0
 321 1569 l 1
 329 1569 l 0
 351 1569 395 1559 395 1516 c 0
 395 1500 390 1489 388 1481 c 0
 386 1470 l 1
 376 1466 l 0
 283 1424 205 1361 125 1293 c 0
 120 1288 l 1
 112 1288 l 0
 88 1288 55 1303 55 1339 c 0
EndSplineSet
Validated: 1
EndChar

StartChar: circumflex
Encoding: 266 710 104
Width: 438
Flags: HW
LayerCount: 2
Fore
SplineSet
318 929 m 1
 276 955 l 1
 275 965 l 0
 269 1041 254 1116 236 1190 c 0
 235 1194 233 1202 233 1204 c 1
 207 1130 172 1033 170 1006 c 0
 170 1000 l 1
 120 932 l 1
 57 977 l 1
 58 988 l 0
 60 1038 136 1223 194 1308 c 0
 209 1330 224 1354 250 1354 c 0
 296 1354 299 1308 299 1290 c 0
 299 1261 303 1235 310 1209 c 0
 323 1160 345 1113 360 1056 c 0
 361 1052 l 1
 360 1041 l 1
 374 1010 l 1
 372 1000 l 1
 377 989 379 987 379 975 c 0
 379 936 333 931 325 930 c 0
 318 929 l 1
EndSplineSet
Validated: 1
EndChar

StartChar: tilde
Encoding: 267 732 105
Width: 606
Flags: HW
LayerCount: 2
Fore
SplineSet
65 1055 m 0
 65 1116 88 1177 142 1205 c 0
 162 1215 184 1221 210 1221 c 0
 216 1221 l 1
 220 1218 l 0
 245 1204 277 1192 305 1171 c 0
 309 1169 l 1
 311 1164 l 0
 327 1132 359 1096 385 1096 c 0
 391 1096 391 1096 394 1097 c 0
 400 1099 l 1
 406 1097 l 1
 431 1123 442 1112 442 1149 c 0
 442 1153 433 1161 430 1185 c 0
 429 1191 l 1
 432 1197 l 0
 440 1213 456 1221 471 1221 c 0
 526 1221 538 1159 538 1130 c 0
 538 1061 478 1001 409 1001 c 0
 319 1001 259 1074 214 1126 c 1
 208 1128 l 1
 189 1128 l 1
 164 1093 157 1108 157 1094 c 0
 157 1085 162 1072 167 1056 c 0
 169 1047 l 1
 135 999 l 1
 124 999 l 0
 98 999 65 1021 65 1055 c 0
EndSplineSet
Validated: 1
EndChar

StartChar: breve
Encoding: 268 728 106
Width: 482
Flags: HW
LayerCount: 2
Fore
SplineSet
69 1109 m 1
 105 1139 l 1
 113 1139 l 0
 169 1136 163 995 196 971 c 0
 213 958 l 1
 257 958 l 0
 274 958 307 1011 307 1042 c 0
 307 1049 305 1058 305 1071 c 0
 305 1096 318 1130 362 1130 c 0
 386 1130 413 1111 413 1081 c 0
 413 1067 406 1053 404 1048 c 1
 408 1032 l 1
 405 1025 l 0
 373 957 354 870 239 870 c 0
 105 870 69 1005 69 1100 c 0
 69 1109 l 1
EndSplineSet
Validated: 1
EndChar

StartChar: dieresis
Encoding: 168 168 107
Width: 694
Flags: HW
LayerCount: 2
Fore
SplineSet
490 1024 m 0
 490 1060 522 1096 560 1096 c 0
 598 1096 625 1057 625 1026 c 0
 625 980 588 958 551 958 c 0
 514 958 490 994 490 1024 c 0
70 1022 m 0
 70 1070.21777344 103.581054688 1092.94628906 137.307617188 1092.94628906 c 0
 171.330078125 1092.94628906 205.5 1069.81933594 205.5 1026.40039062 c 0
 205.5 986.619140625 163.3828125 957.369140625 126.110351562 957.369140625 c 0
 96.529296875 957.369140625 70 975.793945312 70 1022 c 0
EndSplineSet
Validated: 524289
EndChar

StartChar: ring
Encoding: 269 730 108
Width: 347
Flags: HW
LayerCount: 2
Fore
SplineSet
144 1178 m 0
 144 1165 150 1147 152 1145 c 2
 169 1145 189 1162 189 1163 c 0
 189 1190 179 1208 171 1208 c 0
 162 1208 144 1192 144 1178 c 0
60 1169 m 0
 60 1227 112 1288 173 1288 c 0
 229 1288 279 1225 279 1176 c 0
 279 1101 222 1065 158 1065 c 0
 101 1065 60 1118 60 1169 c 0
EndSplineSet
Validated: 1
EndChar

StartChar: cedilla
Encoding: 184 184 109
Width: 404
Flags: HW
LayerCount: 2
Fore
SplineSet
231 -282 m 1
 231 -237 231 -228 212 -211 c 1
 196 -213 184 -217 164 -217 c 0
 125 -217 104 -187 91 -166 c 0
 85 -157 l 1
 90 -147 l 0
 104 -115 104 -80 104 -39 c 2
 104 1 l 1
 209 16 l 1
 204 -12 l 0
 199 -39 198 -67 197 -92 c 1
 316 -112 346 -220 346 -317 c 0
 346 -382 276 -500 170 -500 c 0
 140 -500 61 -485 61 -424 c 0
 61 -400 80 -383 104 -383 c 0
 141 -383 158 -403 170 -403 c 0
 187 -403 219 -365 219 -340 c 0
 219 -336 218 -331 216 -324 c 0
 215 -322 213 -312 213 -310 c 2
 198 -249 l 1
 231 -282 l 1
EndSplineSet
Validated: 1
EndChar

StartChar: hungarumlaut
Encoding: 270 733 110
Width: 1183
Flags: HW
LayerCount: 2
Fore
SplineSet
63 25 m 2
 77 86 560 428 610 428 c 0
 643 428 677 405 677 365 c 0
 677 300 334 106 287 77 c 0
 282 74 l 1
 276 74 l 0
 218 72 187 -2 104 -20 c 0
 92 -23 l 1
 61 15 l 1
 63 25 l 2
409 41 m 0
 409 111 861 365 915 395 c 1
 929 403 1010 457 1040 457 c 0
 1077 457 1118 421 1127 388 c 0
 1129 380 l 1
 1111 348 l 1
 1104 345 l 0
 982 301 866 230 749 166 c 1
 705 141 503 -16 456 -16 c 0
 415 -16 409 22 409 41 c 0
EndSplineSet
Validated: 1
EndChar

StartChar: caron
Encoding: 271 711 111
Width: 435
Flags: HW
LayerCount: 2
Fore
SplineSet
270 1329 m 1
 312 1355 l 1
 319 1353 l 0
 327 1352 373 1348 373 1309 c 0
 373 1297 369 1290 366 1284 c 1
 366 1282 367 1282 367 1280 c 0
 368 1273 l 1
 354 1242 l 1
 355 1232 l 1
 354 1228 l 0
 339 1172 318 1124 305 1076 c 0
 298 1050 293 1023 293 993 c 0
 293 975 290 930 244 930 c 0
 218 930 203 954 188 976 c 0
 130 1061 54 1246 52 1296 c 0
 51 1307 l 1
 113 1351 l 1
 164 1283 l 1
 164 1278 l 0
 166 1252 202 1148 227 1079 c 1
 228 1084 229 1088 230 1092 c 0
 248 1167 263 1242 269 1318 c 0
 270 1329 l 1
EndSplineSet
Validated: 1
EndChar

StartChar: AE
Encoding: 198 198 112
Width: 879
Flags: HW
LayerCount: 2
Fore
SplineSet
451 1 m 1
 452 11 l 2
 464 90 468 169 468 250 c 0
 468 377 458 509 458 633 c 1
 410 628 300 620 276 610 c 1
 175 224 l 1
 169 205 148 2 83 2 c 0
 51 2 46 36 46 46 c 1
 48 143 104 352 129 446 c 0
 211 761 300 1073 398 1382 c 1
 408 1414 432 1544 511 1544 c 0
 559 1544 613 1554 669 1554 c 0
 684 1554 753 1555 753 1501 c 0
 753 1496 l 1
 733 1456 l 1
 720 1456 l 0
 660 1456 595 1452 538 1446 c 1
 540 1353 552 1264 552 1168 c 0
 552 1015 546 864 546 713 c 1
 595 716 641 732 698 732 c 0
 707 732 l 1
 747 686 l 1
 747 679 l 0
 747 611 600 625 546 625 c 1
 547 472 554 325 554 172 c 0
 554 143 552 117 552 90 c 0
 552 85 552 79 553 76 c 1
 627 77 701 98 782 98 c 0
 794 98 847 95 847 51 c 0
 847 -26 569 -8 557 -12 c 1
 545 -19 532 -38 503 -41 c 0
 494 -42 l 1
 451 1 l 1
464 1153 m 0
 464 1203 464 1254 461 1300 c 1
 410 1136 317 786 296 685 c 1
 348 688 411 694 456 704 c 1
 458 856 464 1003 464 1153 c 0
EndSplineSet
Validated: 33
EndChar

StartChar: Oslash
Encoding: 216 216 113
Width: 561
Flags: HW
LayerCount: 2
Fore
SplineSet
135.1484375 -248 m 0
 129.1484375 -281 l 1
 64.1484375 -229 l 1
 64.1484375 -219 l 0
 66.1484375 -139 87.1484375 -110 123.1484375 125 c 1
 122.1484375 142 110.1484375 163 105.1484375 192 c 1
 57.1484375 481 62.1484375 786 62.1484375 1072 c 0
 62.1484375 1169 52.1484375 1569 232.1484375 1569 c 0
 259.1484375 1569 280.1484375 1551 288.1484375 1547 c 1
 299.1484375 1552 l 1
 320.1484375 1627 326.1484375 1705 343.1484375 1782 c 0
 347.1484375 1798 l 1
 421.1484375 1798 l 1
 418.1484375 1716 l 1
 418.1484375 1715 l 0
 408.1484375 1654 378.1484375 1493 375.1484375 1475 c 1
 376.1484375 1462 387.1484375 1446 401.1484375 1431 c 0
 410.1484375 1421 l 1
 405.1484375 1412 l 1
 410.1484375 1396 422.1484375 1382 432.1484375 1364 c 0
 433.1484375 1363 l 1
 433.1484375 1362 l 0
 451.1484375 1320 457.1484375 1264 457.1484375 1220 c 0
 457.1484375 1208 l 1
 453.1484375 1206 l 1
 455.1484375 1090 484.1484375 969 484.1484375 850 c 0
 484.1484375 844 l 1
 488.1484375 838 l 1
 488.1484375 832 l 0
 488.1484375 707 494.1484375 581 494.1484375 454 c 0
 494.1484375 325 499.1484375 -20 271.1484375 -20 c 0
 242.1484375 -20 210.1484375 -14 183.1484375 2 c 1
 171.1484375 -68 150.1484375 -173 135.1484375 -248 c 0
232.1484375 232 m 1
 226.1484375 199 218.1484375 166 218.1484375 139 c 0
 218.1484375 79 232.1484375 63 287.1484375 63 c 0
 391.1484375 63 400.1484375 320 400.1484375 420 c 0
 400.1484375 587 396.1484375 1090 353.1484375 1314 c 1
 303.1484375 955 300.1484375 587 232.1484375 232 c 1
164.1484375 709 m 1
 164.1484375 705 l 2
 164.1484375 628 172.1484375 546 178.1484375 470 c 1
 208.1484375 730 246.1484375 1147 255.1484375 1229 c 0
 263.1484375 1306 279.1484375 1381 279.1484375 1456 c 0
 279.1484375 1476 257.1484375 1492 236.1484375 1493 c 1
 227.1484375 1490 215.1484375 1484 208.1484375 1482 c 0
 201.1484375 1480 l 1
 195.1484375 1482 l 1
 151.1484375 1406 146.1484375 991 146.1484375 852 c 0
 146.1484375 806 145.1484375 752 163.1484375 713 c 0
 164.1484375 709 l 1
EndSplineSet
Validated: 524321
EndChar

StartChar: OE
Encoding: 272 338 114
Width: 1113
Flags: HW
LayerCount: 2
Fore
SplineSet
669 34 m 1
 670 36 l 1
 636 26 599 10 557 10 c 0
 228 10 61 257 61 551 c 0
 61 686 51 823 51 960 c 0
 51 1132 97 1552 368 1552 c 0
 449 1552 569 1546 646 1494 c 1
 677 1538 l 1
 688 1538 l 0
 721 1538 747 1526 767 1526 c 0
 919 1526 l 0
 930 1526 946 1530 964 1530 c 0
 970 1530 l 1
 975 1527 l 0
 987 1520 1015 1502 1015 1474 c 0
 1015 1433 969 1433 958 1433 c 0
 884 1433 808 1439 737 1440 c 1
 737 1424 737 1415 738 1402 c 0
 744 1276 765 1148 765 1019 c 0
 765 984 761 948 761 916 c 0
 761 895 763 870 767 854 c 1
 831 852 l 1
 846 852 863 856 884 856 c 0
 910 856 934 844 950 823 c 0
 954 818 l 1
 954 811 l 0
 954 797 952 782 941 771 c 0
 930 760 915 758 901 758 c 0
 868 758 836 764 808 764 c 0
 802 764 780 763 770 760 c 1
 770 529 783 303 784 75 c 1
 831 78 873 82 921 82 c 0
 932 82 1083 93 1083 24 c 0
 1083 18 l 1
 1061 -14 l 1
 1050 -14 l 0
 946 -14 844 -20 739 -20 c 0
 720 -20 673 -13 669 29 c 0
 669 34 l 1
255 233 m 1
 260 227 l 2
 327 156 409 113 507 113 c 0
 568 113 690 128 690 172 c 0
 690 495 661 817 661 1142 c 0
 661 1217 650 1298 649 1376 c 1
 597 1437 489 1456 403 1456 c 0
 175 1456 141 1147 141 961 c 0
 141 914 143 866 143 820 c 0
 143 799 142 775 141 754 c 1
 145 749 l 1
 145 743 l 0
 145 647 182 244 248 234 c 0
 255 233 l 1
EndSplineSet
Validated: 33
EndChar

StartChar: oslash
Encoding: 248 248 115
Width: 523
Flags: HW
LayerCount: 2
Fore
SplineSet
64.1591796875 -198 m 1
 64.1591796875 -197 l 2
 76.1591796875 -78 101.159179688 4 113.159179688 118 c 1
 113.159179688 135 104.159179688 154 99.1591796875 179 c 1
 53.1591796875 441 58.1591796875 720 58.1591796875 983 c 0
 58.1591796875 1059 49.1591796875 1382 216.159179688 1382 c 0
 239.159179688 1382 259.159179688 1370 270.159179688 1363 c 1
 278.159179688 1369 l 1
 288.159179688 1425 301.159179688 1514 316.159179688 1576 c 0
 320.159179688 1591 l 1
 390.159179688 1591 l 1
 390.159179688 1552 l 0
 390.159179688 1527 349.159179688 1314 349.159179688 1297 c 0
 349.159179688 1287 360.159179688 1273 372.159179688 1254 c 0
 378.159179688 1244 l 1
 375.159179688 1237 l 1
 380.159179688 1225 391.159179688 1212 400.159179688 1193 c 1
 418.159179688 1155 424.159179688 1103 424.159179688 1063 c 0
 424.159179688 1051 l 1
 421.159179688 1049 l 1
 423.159179688 960 447.159179688 873 447.159179688 780 c 0
 447.159179688 776 l 1
 451.159179688 770 l 1
 451.159179688 764 l 0
 451.159179688 649 457.159179688 535 457.159179688 419 c 0
 457.159179688 302 461.159179688 -14 250.159179688 -14 c 0
 225.159179688 -14 196.159179688 -9 174.159179688 4 c 1
 166.159179688 -57 156.159179688 -248 103.159179688 -248 c 0
 75.1591796875 -248 64.1591796875 -223 64.1591796875 -199 c 0
 64.1591796875 -198 l 1
217.159179688 216 m 0
 209.159179688 186 203.159179688 159 203.159179688 131 c 0
 203.159179688 78 215.159179688 66 267.159179688 66 c 0
 358.159179688 66 367.159179688 295 367.159179688 389 c 0
 367.159179688 529 363.159179688 948 326.159179688 1144 c 1
 276.159179688 801 239.159179688 299 217.159179688 216 c 0
154.159179688 651 m 1
 154.159179688 647 l 2
 154.159179688 587 159.159179688 524 165.159179688 464 c 1
 192.159179688 693 225.159179688 998 234.159179688 1071 c 1
 242.159179688 1142 257.159179688 1211 257.159179688 1280 c 0
 257.159179688 1295 237.159179688 1310 219.159179688 1311 c 1
 213.159179688 1309 199.159179688 1304 193.159179688 1302 c 0
 188.159179688 1300 l 1
 183.159179688 1301 l 1
 145.159179688 1240 140.159179688 898 140.159179688 782 c 0
 140.159179688 742 139.159179688 690 153.159179688 655 c 0
 154.159179688 651 l 1
EndSplineSet
Validated: 524321
EndChar

StartChar: trademark
Encoding: 273 8482 116
Width: 1037
Flags: HW
LayerCount: 2
Fore
SplineSet
224 666 m 2
 225 671 226 678 226 688 c 0
 226 703 224 719 224 739 c 0
 224 758 l 1
 227 761 l 1
 230 777 230 808 230 815 c 0
 230 829 227 866 226 869 c 1
 223 875 l 1
 224 880 l 0
 226 907 228 935 228 961 c 0
 228 1035 220 1113 220 1190 c 0
 220 1263 226 1333 226 1403 c 0
 226 1413 225 1458 222 1480 c 1
 191 1478 159 1473 123 1473 c 0
 123 1473 46 1463 46 1513 c 0
 46 1525 l 1
 68 1564 l 1
 79 1565 l 0
 179 1573 279 1585 381 1585 c 0
 402 1585 422 1581 437 1581 c 0
 445 1581 l 1
 482 1544 l 1
 482 1536 l 0
 482 1482 421 1481 386 1481 c 0
 366 1481 341 1483 325 1483 c 1
 321 1439 320 1403 320 1362 c 0
 320 1199 334 1035 334 870 c 0
 334 818 332 764 328 712 c 1
 331 704 336 697 336 684 c 0
 336 648 294 631 279 627 c 0
 271 625 l 1
 220 651 l 1
 224 666 l 2
459 690 m 0
 459 764 472 838 472 907 c 0
 472 1120 471 1334 490 1548 c 0
 491 1555 l 1
 496 1561 l 0
 502 1567 511 1581 524 1594 c 0
 532 1602 544 1610 560 1610 c 0
 586 1610 602 1588 609 1581 c 0
 618 1572 l 1
 614 1560 l 0
 613 1558 613 1554 613 1546 c 0
 613 1449 686 1292 707 1177 c 1
 709 1166 712 1138 715 1116 c 1
 765 1249 799 1388 833 1527 c 0
 838 1549 840 1636 910 1636 c 0
 933 1636 963 1620 963 1587 c 0
 963 1439 941 1296 941 1153 c 0
 941 1032 955 910 955 786 c 0
 955 763 963 621 881 621 c 0
 862 621 830 628 830 666 c 0
 830 746 842 825 842 901 c 0
 842 981 835 1069 833 1149 c 1
 825 1124 819 1109 806 1095 c 1
 799 1078 797 1060 797 1040 c 0
 797 1032 l 1
 794 1028 l 1
 792 1024 l 0
 787 1010 776 844 707 844 c 0
 614 844 629 1035 619 1053 c 0
 618 1057 l 1
 617 1060 l 0
 609 1130 589 1201 571 1271 c 1
 565 1144 566 1029 566 877 c 0
 566 816 570 750 573 743 c 1
 576 739 l 1
 576 733 l 0
 576 682 580 621 504 621 c 0
 454 621 459 682 459 690 c 0
711 1061 m 1
 711 1020 l 1
 713 1020 l 1
 713 1061 l 1
 711 1061 l 1
EndSplineSet
Validated: 33
EndChar

StartChar: Eth
Encoding: 208 208 117
Width: 810
Flags: HW
LayerCount: 2
Fore
SplineSet
237 110 m 1
 237 115 l 2
 237 411 218 720 196 1010 c 1
 192 1054 191 1104 184 1142 c 1
 147 1139 114 1130 75 1130 c 0
 36 1130 26 1163 26 1186 c 0
 26 1254 166 1243 182 1243 c 1
 181 1391 153 1536 153 1686 c 0
 153 1842 137 1998 137 2157 c 0
 137 2175 157 2220 190 2220 c 0
 386 2220 554 1989 630 1845 c 0
 632 1840 l 1
 632 1835 l 0
 632 1481 749 1158 749 813 c 0
 749 545 586 172 325 57 c 0
 316 53 l 1
 308 57 l 0
 289 66 259 65 239 106 c 0
 237 110 l 1
329 618 m 1
 329 614 l 2
 329 479 348 339 350 203 c 1
 364 213 374 225 389 240 c 1
 517 366 639 604 639 782 c 0
 639 1091 638 1374 575 1677 c 0
 536 1864 430 2040 252 2105 c 1
 254 1945 271 1358 295 1252 c 1
 373 1255 447 1274 530 1274 c 0
 572 1274 590 1231 593 1206 c 0
 594 1198 l 1
 562 1159 l 1
 553 1159 l 0
 467 1159 380 1157 295 1147 c 1
 298 1038 320 649 328 621 c 1
 329 618 l 1
EndSplineSet
Validated: 33
EndChar

StartChar: registered
Encoding: 174 174 118
Width: 1125
Flags: HW
LayerCount: 2
Fore
SplineSet
66 715 m 0
 66 805 68 895 68 985 c 0
 68 1317 107 1935 590 1935 c 0
 713 1935 832 1843 898 1752 c 1
 957 1725 949 1664 967 1647 c 0
 973 1641 l 1
 973 1632 l 0
 973 1589 994 1489 1002 1441 c 1
 1026 1274 1069 1089 1069 920 c 0
 1069 854 l 0
 1069 639 1074 141 908 -27 c 1
 821 -116 733 -186 594 -186 c 0
 94 -186 66 362 66 715 c 0
442 -66 m 1
 462 -73 486 -78 498 -78 c 0
 502 -78 l 1
 521 -86 l 1
 936 -81 961 374 961 707 c 0
 961 987 942 1347 839 1644 c 0
 835 1655 l 1
 849 1670 l 1
 838 1689 823 1705 808 1711 c 0
 804 1713 l 1
 801 1716 l 0
 743 1776 682 1835 605 1835 c 0
 242 1835 177 1337 177 1042 c 0
 177 902 191 759 191 616 c 0
 191 432 207 169 318 25 c 0
 360 -30 399 -26 442 -66 c 1
455 147 m 0
 424 147 385 167 385 209 c 0
 385 297 385 384 377 471 c 0
 371 536 351 604 351 676 c 0
 351 1075 l 0
 351 1199 326 1318 326 1454 c 0
 326 1606 405 1632 539 1632 c 0
 753 1632 772 1416 772 1270 c 0
 772 1018 632 997 631 969 c 1
 634 929 786 400 814 311 c 1
 820 311 l 1
 820 292 l 1
 827 272 850 219 850 199 c 0
 850 165 806 152 799 149 c 0
 795 147 l 1
 791 147 l 0
 690 147 644 493 630 539 c 1
 596 647 550 870 528 919 c 1
 513 915 494 900 468 895 c 1
 466 859 463 829 463 797 c 0
 463 604 508 411 508 211 c 0
 508 185 500 147 455 147 c 0
443 1415 m 0
 443 1346 448 1060 466 997 c 1
 517 1014 627 1113 638 1143 c 1
 651 1182 656 1228 656 1272 c 0
 656 1373 650 1528 545 1528 c 0
 444 1528 443 1515 443 1415 c 0
EndSplineSet
Validated: 33
EndChar

StartChar: copyright
Encoding: 169 169 119
Width: 1113
Flags: HW
LayerCount: 2
Fore
SplineSet
58 924 m 0
 58 1183 103 1808 496 1808 c 0
 961 1808 1065 1081 1065 756 c 0
 1065 417 991 -18 545 -18 c 0
 94 -18 88 326 70 660 c 1
 66 748 58 835 58 924 c 0
170 940 m 0
 170 827 183 710 189 595 c 1
 204 347 220 78 519 78 c 0
 778 78 879 227 936 464 c 1
 934 470 934 472 934 475 c 0
 934 522 957 559 957 588 c 0
 957 893 l 0
 957 966 931 1043 918 1121 c 0
 886 1324 811 1542 640 1660 c 1
 600 1687 561 1716 521 1716 c 0
 220 1716 170 1183 170 940 c 0
392 299 m 2
 274 447 271 621 271 793 c 0
 271 960 260 1497 551 1497 c 0
 577 1497 608 1496 634 1486 c 1
 680 1470 789 1326 789 1276 c 0
 789 1251 771 1227 742 1227 c 0
 648 1227 651 1391 560 1391 c 0
 406 1391 407 1063 390 921 c 1
 391 919 391 920 392 918 c 0
 395 911 l 1
 393 903 l 0
 386 881 386 852 386 823 c 0
 386 703 384 499 451 410 c 0
 455 404 l 1
 455 399 l 1
 488 362 520 330 576 330 c 0
 682 330 694 438 758 438 c 0
 802 438 809 393 809 373 c 0
 809 281 645 229 586 229 c 0
 506 229 460 266 400 293 c 0
 395 295 l 1
 392 299 l 2
EndSplineSet
Validated: 33
EndChar

StartChar: _0015
Encoding: 274 -1 123
Width: 826
Flags: HW
LayerCount: 2
Fore
SplineSet
659 429 m 1
 564 620 490 818 396 1000 c 1
 342 847 195 379 114 379 c 0
 88 379 70 396 65 398 c 0
 48 403 l 1
 51 421 l 0
 58 462 94 529 108 563 c 1
 150 661 317 1046 327 1133 c 1
 276 1254 223 1371 167 1488 c 1
 130 1562 94 1641 45 1706 c 0
 39 1713 l 1
 41 1723 l 0
 48 1753 75 1769 102 1769 c 0
 169 1769 313 1370 376 1271 c 1
 446 1448 496 1635 568 1816 c 0
 573 1829 l 1
 587 1829 l 0
 611 1829 637 1817 649 1793 c 0
 651 1788 l 1
 651 1783 l 0
 649 1733 615 1652 603 1610 c 1
 564 1484 519 1362 478 1239 c 1
 446 1146 l 1
 446 1142 l 1
 458 1118 505 1026 517 1005 c 1
 538 995 l 1
 526 983 l 1
 574 884 792 439 792 418 c 0
 792 376 746 362 724 362 c 0
 694 362 659 387 659 424 c 0
 659 429 l 1
EndSplineSet
Validated: 1
EndChar

